<?xml version="1.0" encoding="UTF-8"?>
<svg version="1.1" xmlns="http://www.w3.org/2000/svg" width="500" height="500">
<path d="M0 0 C3.55129763 3.8472391 5.41579801 8.3027409 5.22224426 13.56367493 C4.63092729 18.93657824 3.52615624 23.91836933 1.93359375 29.078125 C1.7003389 29.85021805 1.46708405 30.6223111 1.22676086 31.4178009 C0.73564691 33.03487743 0.24049838 34.65073378 -0.25854492 36.26538086 C-1.01579436 38.72320596 -1.75367771 41.18629605 -2.49023438 43.65039062 C-2.97280282 45.23082204 -3.45648879 46.81091275 -3.94140625 48.390625 C-4.15823563 49.11887985 -4.375065 49.8471347 -4.59846497 50.59745789 C-6.96289166 58.13972356 -10.63033099 63.53434853 -17.54052734 67.62207031 C-24.35603355 70.49969429 -31.86923845 68.52316588 -38.42675781 65.89282227 C-39.73918457 65.34452759 -39.73918457 65.34452759 -41.078125 64.78515625 C-75.99098664 51.13887519 -118.09154069 51.12152984 -152.515625 66.1640625 C-160.68745589 70.02596942 -167.69475293 74.85878472 -174.703125 80.53515625 C-175.77820313 81.32792969 -175.77820313 81.32792969 -176.875 82.13671875 C-195.26969923 96.48458415 -204.34223348 124.68607863 -207.1640625 146.82421875 C-210.91812569 181.92409007 -204.80206629 216.40562415 -182.703125 244.53515625 C-181.07055163 246.23523265 -179.40605424 247.90555889 -177.703125 249.53515625 C-177.1153125 250.10878906 -176.5275 250.68242187 -175.921875 251.2734375 C-158.56475477 267.17098171 -134.59156402 275.66846967 -111.19921875 275.703125 C-110.39887711 275.7064534 -109.59853546 275.7097818 -108.77394104 275.71321106 C-107.08554656 275.71825019 -105.39714222 275.72062032 -103.70874023 275.72045898 C-101.17218832 275.72262924 -98.63608364 275.74077228 -96.09960938 275.75976562 C-94.44531396 275.7627037 -92.79101651 275.76468572 -91.13671875 275.765625 C-90.39973251 275.77281052 -89.66274628 275.77999603 -88.90342712 275.78739929 C-81.57478608 275.75681135 -75.18727319 274.60432028 -67.703125 273.53515625 C-67.373125 253.07515625 -67.043125 232.61515625 -66.703125 211.53515625 C-82.70804036 211.69293816 -82.70804036 211.69293816 -98.71240234 211.89550781 C-100.7379471 211.90720429 -102.76350134 211.91739383 -104.7890625 211.92578125 C-105.81749268 211.94624512 -106.84592285 211.96670898 -107.90551758 211.98779297 C-115.20190621 211.99127158 -122.65043793 211.08517692 -128.35580444 206.08746338 C-131.89227431 202.01294128 -133.94637181 198.34092457 -133.9777832 192.95361328 C-133.98731522 192.05232697 -133.99684723 191.15104065 -134.00666809 190.22244263 C-134.00530098 188.77235306 -134.00530098 188.77235306 -134.00390625 187.29296875 C-134.00819138 186.29184052 -134.0124765 185.29071228 -134.01689148 184.25924683 C-134.02263085 182.14272823 -134.02313794 180.0261899 -134.01879883 177.90966797 C-134.01564342 174.67901752 -134.03908757 171.44928696 -134.06445312 168.21875 C-134.06672667 166.1601574 -134.06742936 164.10156235 -134.06640625 162.04296875 C-134.075616 161.08029083 -134.08482574 160.11761292 -134.09431458 159.12576294 C-134.0509037 152.80040823 -133.23445144 148.36333334 -128.87109375 143.48828125 C-128.21753906 142.92625 -127.56398438 142.36421875 -126.890625 141.78515625 C-126.24480469 141.2128125 -125.59898437 140.64046875 -124.93359375 140.05078125 C-118.92821928 135.97007145 -112.66686633 136.24373266 -105.68408203 136.26049805 C-104.03418274 136.25283165 -104.03418274 136.25283165 -102.35095215 136.24501038 C-98.72089166 136.23112924 -95.09102135 136.23207014 -91.4609375 136.234375 C-88.93276906 136.23048716 -86.40460127 136.2261523 -83.87643433 136.22138977 C-78.57889418 136.21393064 -73.28142357 136.21407787 -67.98388672 136.21948242 C-61.87515837 136.22551911 -55.76666053 136.2132152 -49.6579715 136.19191235 C-43.76438927 136.17212125 -37.87087798 136.16912871 -31.97726059 136.17264748 C-29.47747125 136.17213477 -26.97767819 136.1669065 -24.47790909 136.15683556 C-20.97874564 136.1444687 -17.4801123 136.15126502 -13.98095703 136.1628418 C-12.95316132 136.15519806 -11.9253656 136.14755432 -10.86642456 136.13967896 C-2.71981125 136.19910747 4.29992555 137.5382068 10.296875 143.53515625 C14.75868145 149.71536113 15.41955913 155.63997405 15.43058777 163.19441223 C15.43285333 163.83838996 15.43511888 164.48236769 15.43745309 165.1458599 C15.44375028 167.2897227 15.4429665 169.43352159 15.44213867 171.57739258 C15.44513285 173.1203062 15.44853598 174.66321908 15.45231628 176.20613098 C15.46113444 180.38806881 15.46349349 184.56998616 15.46413207 188.75193238 C15.46484384 191.36753377 15.46698059 193.98312999 15.46962929 196.59873009 C15.47887567 205.73192041 15.48296508 214.86509616 15.48217773 223.99829102 C15.48157722 232.4983728 15.49212572 240.99839106 15.5079214 249.49845678 C15.5210173 256.80736584 15.52636077 264.11625419 15.52572232 271.42517489 C15.52546793 275.78547983 15.5282868 280.1457283 15.53890038 284.5060215 C15.54861584 288.6092228 15.548637 292.71231405 15.54138374 296.81551933 C15.54034216 298.31626166 15.54267532 299.81701097 15.5487442 301.31774139 C15.62874082 322.48043556 15.62874082 322.48043556 8.63916016 329.74902344 C3.85230819 333.39928496 -1.82201615 334.93842475 -7.515625 336.66015625 C-8.85939165 337.0846245 -10.2028939 337.5099306 -11.54614258 337.93603516 C-41.92266359 347.43247813 -73.35482929 352.77400836 -105.203125 352.72265625 C-105.9014444 352.722052 -106.59976379 352.72144775 -107.31924438 352.7208252 C-119.20501119 352.69306539 -130.92562937 352.21901275 -142.703125 350.53515625 C-143.52151855 350.42220215 -144.33991211 350.30924805 -145.18310547 350.19287109 C-188.86958356 343.85990018 -230.48720529 322.57320339 -257.7421875 287.30859375 C-264.85352862 277.25072084 -270.54388864 266.37337329 -275.85693359 255.28369141 C-276.57096188 253.8082527 -277.3153424 252.34755975 -278.06640625 250.890625 C-288.58970891 229.67263038 -293.7217727 203.74338024 -293.94140625 180.12890625 C-293.9512001 179.2545694 -293.96099396 178.38023254 -293.97108459 177.47940063 C-294.13981644 158.51318562 -294.17980556 140.0814043 -289.703125 121.53515625 C-289.37368896 120.16593018 -289.37368896 120.16593018 -289.03759766 118.76904297 C-282.08341867 90.85881717 -269.68130358 61.73266028 -249.703125 40.53515625 C-249.043125 40.53515625 -248.383125 40.53515625 -247.703125 40.53515625 C-247.31447266 39.65923828 -247.31447266 39.65923828 -246.91796875 38.765625 C-242.59563374 30.82976233 -233.6428807 25.03217327 -226.703125 19.53515625 C-225.7028125 18.71789062 -224.7025 17.900625 -223.671875 17.05859375 C-174.48827211 -22.64736045 -53.3055216 -45.84763899 0 0 Z " fill="#01C751" transform="translate(389.703125,84.46484375)"/>
</svg>
