<svg xmlns="http://www.w3.org/2000/svg" width="320" height="320" shape-rendering="geometricPrecision" text-rendering="geometricPrecision" image-rendering="optimizeQuality" fill-rule="evenodd" clip-rule="evenodd"><path fill="#25a136" d="M165.5 7.5a31.808 31.808 0 0112 1.5 52.187 52.187 0 0110 7 502.991 502.991 0 0127 33l26 1c19.397.705 26.23 10.205 20.5 28.5-16.648 33.241-42.814 55.074-78.5 65.5a1368.42 1368.42 0 0196-1c18.141.491 23.308 8.658 15.5 24.5l-7 9a533.952 533.952 0 01-30 25 181.672 181.672 0 00-2 25c-1.048 19.754-10.882 26.921-29.5 21.5-24.334-12.667-42.167-31.501-53.5-56.5 3.478 29.434 13.478 56.434 30 81 8.384 10.384 18.551 18.55 30.5 24.5 9.861 2.951 18.861 1.284 27-5a65.34 65.34 0 0012-11.5c5.764-2.025 7.931-.025 6.5 6-14.979 26.329-35.479 31.829-61.5 16.5-17.084-12.768-29.251-29.268-36.5-49.5a252.616 252.616 0 01-13.5-63c.19-2.658.857-5.158 2-7.5a114.034 114.034 0 01-3.5-11.5 438.766 438.766 0 01-5 88c-1.027 5.421-3.027 10.421-6 15-6.825 5.276-13.658 5.109-20.5-.5a109.442 109.442 0 00-7.5-6.5 410.814 410.814 0 01-20.5-27.5 184.658 184.658 0 00-26-2c-23.37-2.055-28.87-13.221-16.5-33.5 17.835-27.491 42.668-45.324 74.5-53.5a949.973 949.973 0 01-96-2c-22.83-3.477-26.664-13.977-11.5-31.5a313.592 313.592 0 0132-26 257.936 257.936 0 002-31C67.955 41.868 78.455 37.035 95.5 46c29.564 17.625 49.731 42.791 60.5 75.5a1156.548 1156.548 0 01-1-84c-.034-9.166 1.966-17.833 6-26 1.397-1.57 2.897-2.904 4.5-4zm-7 126c1.455 8.28 6.455 12.447 15 12.5-8.614 2.031-12.114 7.531-10.5 16.5-.847-9.516-6.014-14.016-15.5-13.5 9.183-1.187 12.849-6.354 11-15.5z" opacity=".909"/><path fill="#42d557" d="M200.5 86.5c1.193-2.47 1.693-5.136 1.5-8a13.485 13.485 0 00-2.5 6 178.387 178.387 0 01-29 44.5c-1.1.432-1.767-.068-2-1.5a505.648 505.648 0 01-1.5-93c1.25-12.522 6.417-14.356 15.5-5.5A180.195 180.195 0 01202 54.5c3.563 5.251 8.396 8.418 14.5 9.5l28 1a38.034 38.034 0 016.5 2.5c.108 5.809-1.558 11.142-5 16-15.512 24.494-37.179 41.161-65 50l-1.5-1c10.252-13.839 17.252-29.172 21-46zM81.5 53.5a55.352 55.352 0 0120 9.5c21.969 15.977 36.969 36.977 45 63l-.5 2.5c-16.236-12.37-34.403-20.203-54.5-23.5 19.303 7.829 36.303 18.995 51 33.5a477.463 477.463 0 01-99-1.5c-4.991-.312-6.825-2.812-5.5-7.5l4-6c11.025-9.03 22.025-18.03 33-27l2-6 1-30c.653-2.64 1.82-4.973 3.5-7z"/><path fill="#32b844" d="M200.5 86.5c.172-.992-.162-1.658-1-2a13.485 13.485 0 012.5-6c.193 2.864-.307 5.53-1.5 8z"/><path fill="#42d557" d="M221.5 185.5c2.128 1.129 4.461 1.296 7 .5a10.134 10.134 0 00-4-1.5c-17.145-6.503-32.478-15.837-46-28l2-1c4.97-.729 9.97-1.229 15-1.5a930.035 930.035 0 0161 0c7.385.199 14.718.865 22 2 1.978.481 3.311 1.647 4 3.5-3.641 7.154-8.641 13.321-15 18.5a284 284 0 00-22.5 17.5 20.51 20.51 0 00-3 8 243.155 243.155 0 01-2 26c.155 6.855-3.011 9.689-9.5 8.5-29.702-15.562-48.202-39.728-55.5-72.5 14.008 10.276 29.508 16.942 46.5 20zM111.5 208.5c-1.738 1.619-2.238 3.619-1.5 6l2.5-5c10.811-16.818 24.144-31.485 40-44 2.667 25.684 2.167 51.351-1.5 77a109.77 109.77 0 01-5 20c-2.549 2.506-5.049 2.34-7.5-.5-8.694-8.021-15.86-17.187-21.5-27.5-4.197-6.182-10.031-9.349-17.5-9.5l-26-1c-2.887-.582-4.554-2.249-5-5 11.797-24.793 30.463-42.46 56-53 5.381-2.763 11.048-4.096 17-4-13.475 13.298-23.475 28.798-30 46.5z"/><path fill="#31b744" d="M224.5 184.5c1.422.209 2.755.709 4 1.5-2.539.796-4.872.629-7-.5 1.291.237 2.291-.096 3-1z"/><path fill="#32b845" d="M111.5 208.5c0 .667.333 1 1 1l-2.5 5c-.738-2.381-.238-4.381 1.5-6z"/></svg>