<?xml version="1.0" encoding="UTF-8"?>
<!DOCTYPE svg PUBLIC '-//W3C//DTD SVG 20010904//EN' 'http://www.w3.org/TR/2001/REC-SVG-20010904/DTD/svg10.dtd'>
<svg width="752pt" height="752pt" version="1.0" viewBox="0 0 752 752" xmlns="http://www.w3.org/2000/svg">
  <g transform="translate(0 752) scale(.1 -.1)">
    <path
      d="m2897 5426c-746-167-1359-305-1361-307-4-4 591-2740 598-2746 5-6 720 148 729 157 5 4 11 26 14 49 4 30 2 41-8 41-7 0-159-32-337-71s-326-68-329-66c-10 10-571 2562-565 2568 10 8 2571 573 2576 568 1-2 40-168 85-369s86-375 91-387c8-19 18-23 50-23 22 0 40 1 40 3-1 1-45 200-98 442-73 332-101 440-112 442-8 1-626-135-1373-301z" />
    <path
      d="m3179 4868c-2-7-277-2803-276-2804 6-5 2801-274 2810-271 7 2 59 485 149 1402 75 770 136 1400 134 1402-3 4-2755 273-2789 273-15 0-27-1-28-2zm1121-193c1409-136 1593-154 1597-158 6-7-212-2207-219-2205-3 2-152 181-331 400l-324 396-178-144c-98-79-182-144-186-144s-148 169-319 375-316 373-321 370c-5-4-221-182-480-396-260-214-473-388-475-386-4 3 184 1937 191 1973 4 16 11 20 32 17 16-2 471-46 1013-98z" />
    <path
      d="m5115 4217c-112-38-200-114-249-217-29-60-31-73-31-170s2-110 32-173c145-306 581-306 726 0 30 63 32 76 32 173s-2 110-31 170c-39 84-111 155-194 194-55 25-79 31-155 33-55 2-105-2-130-10z" />
  </g>
</svg>