<svg version="1.0" xmlns="http://www.w3.org/2000/svg" width="933.333" height="920" viewBox="0 0 700 690">
  <g fill="none" stroke="#000" stroke-width="2">
    <path fill="#000"
      d="M252.3 12.7c-7.1 6.5-16 14.5-19.8 17.8-3.8 3.3-8.9 7.9-11.2 10.2-2.3 2.4-4.5 4.3-4.8 4.3-.3 0-18.2 16-39.8 35.5-48.7 44.2-48.6 44.1-54.4 49.2-2.6 2.3-17.4 15.6-32.8 29.5-38.4 34.9-52.3 47.4-59.1 53.3-4.4 3.8-22.6 20-29.8 26.6-1 .8 2 16.6 3.4 18.4.5.6 2.5 8.2 4.4 17 2 8.8 4.1 16.9 4.6 18 .5 1.1 1.4 4 1.9 6.5 2.6 11.7 7.3 30.7 8.1 32.5.5 1.1 2.8 10 5 19.8s4.5 18.6 5 19.5c.5.9 2.5 8.9 4.5 17.7 2 8.8 4 16.9 4.5 18 .5 1.1 2.8 9.9 5 19.5s4.5 18.4 5 19.5c.5 1.1 2.8 9.6 5 19 4.8 20.5 4.8 20.3 5.4 21.3.2.4 2.1 7.9 4.1 16.7 2 8.8 4 16.9 4.5 18 .8 1.8 2.8 9.6 7.6 30.5.8 3.6 1.9 7.4 2.4 8.5.6 1.1 2.6 8.9 4.5 17.3 4.4 19.3 6.3 25 8.4 25.6.9.2 7 1.7 13.6 3.2 6.6 1.4 12.5 3 13 3.4.6.4 2.6 1.1 4.5 1.5 8.8 1.8 32.7 7.6 34.5 8.5 1.1.5 9.9 2.7 19.5 5 9.6 2.2 18.4 4.5 19.5 5 1.7.8 8.5 2.5 29.5 7.2 2.5.6 5 1.4 5.5 1.8.6.4 2.6 1.1 4.5 1.5 9.8 2 32.7 7.7 34.5 8.5 1.1.5 7.1 2.1 13.4 3.5 13.8 3.2 21.8 5.2 23 6 .5.3 9 2.3 18.8 4.6 9.8 2.2 19.2 4.6 20.8 5.3 1.7.8 9.5 2.8 17.5 4.5 8 1.8 15.2 3.5 16 3.8.8.4 1.7.7 2 .8.3 0 3 .8 6 1.7 3 .9 10.9 2.8 17.5 4.3s12.5 3.1 13 3.5c.6.4 3.8 1.3 7.3 2 5.8 1.2 6.4 1.2 8.5-.7 1.2-1 7.6-6.8 14.2-12.7 6.6-6 14.7-13.1 17.9-16 3.2-2.8 8-7 10.5-9.3 2.5-2.4 22.6-20.5 44.6-40.3 22-19.8 41.8-37.7 44.1-39.8 2.2-2 6.7-6 10-8.8 3.2-2.9 21.9-19.7 41.4-37.4 19.5-17.8 38.2-34.6 41.4-37.4 3.2-2.8 7.8-7 10.1-9.4 2.3-2.3 4.6-4.2 5-4.2.8 0 23.8-21 24.3-22.2.5-1.1-2.6-14.5-3.8-16.6-.5-.9-2.6-8.9-4.5-17.7-1.9-8.8-4.2-17.8-5-20-.7-2.2-3-11-5-19.5s-4-16.4-4.5-17.5c-.5-1.1-2.8-10.1-5.1-19.9-2.3-9.9-4.5-18.7-5-19.5-.5-.9-2.5-8.8-4.4-17.6-2-8.8-4-16.9-4.6-18-.5-1.1-2.7-9.9-4.9-19.5-2.3-9.6-4.5-18.4-5-19.5-.6-1.1-2.6-9-4.5-17.5s-3.9-16.4-4.5-17.5c-.5-1.1-3-10.3-5.4-20.5-2.4-10.2-5.5-22.8-6.9-28-1.4-5.2-3.5-14-4.7-19.5-1.3-5.5-2.6-10.5-3-11-.4-.6-2.4-8.4-4.5-17.5-2-9.1-4.1-16.9-4.6-17.4-.5-.6-.9-1.9-.9-3 0-3.9-1.7-4.7-14.6-7.7-7.1-1.6-13.8-3.3-14.9-3.9-1.9-.9-7.8-2.4-28-7-4.9-1.1-9.9-2.5-11-3-1.1-.5-9-2.5-17.5-4.5s-16.2-3.9-17-4.2c-.8-.3-1.9-.7-2.5-.8-.5 0-1.7-.4-2.5-.8-.8-.3-8.5-2.2-17-4.2s-16.4-4-17.5-4.5c-1.1-.5-4.2-1.4-7-2-11.6-2.5-30.1-7.2-32-8-1.1-.5-7.1-2.1-13.4-3.5-12.5-2.8-20-4.8-24.6-6.4-1.6-.6-10.2-2.7-19-4.7s-16.4-4-17-4.4c-.5-.4-8.4-2.4-17.5-4.4-9.1-2.1-18.1-4.4-20-5.2-1.9-.7-10.5-3-19-4.9-8.5-1.9-16.4-3.9-17.5-4.5-2.8-1.3-9.6-3-12.1-3-1.3 0-7.1 4.6-15.1 11.7zm34.2-1.6c7.2 1.6 13.7 3.3 14.6 3.8.8.5 9.6 2.8 19.5 5.1 9.8 2.3 18.6 4.5 19.4 5 .8.4 8.7 2.4 17.5 4.5 8.8 2 16.7 3.9 17.5 4.3.8.3 2 .6 2.5.7.6 0 1.5.3 2 .7.6.3 8.2 2.2 17 4.2s16.7 4 17.6 4.5c.8.5 9.6 2.7 19.5 5 9.8 2.3 18.6 4.5 19.4 5 .9.4 8.7 2.5 17.5 4.5 8.8 2.1 16.9 4.2 18 4.7 1.1.5 10.3 2.9 20.5 5.4 10.2 2.6 26.4 6.6 36 9.1 9.6 2.5 21.8 5.6 27 6.9 5.2 1.4 10.6 2.8 12 3.2 3.3 1-3.4 1.4-90 5.7-39.3 1.9-83.4 4.2-98 5-51.9 3-107.3 5.7-107.7 5.2-.3-.3-1.1-4.2-1.9-8.8-.7-4.6-1.8-9.7-2.3-11.3-.6-1.7-2.8-14-5.1-27.5-2.2-13.5-4.5-25.4-4.9-26.5-.8-1.7-4.1-19.6-4.1-21.9 0-.5.8-.5 1.8-.1.9.3 7.6 2 14.7 3.6zm-21 1.1c.3 1.8 1.9 10.7 3.6 19.8 1.7 9.1 5 28 7.5 42 2.4 14 4.9 26.3 5.4 27.2.6 1 1 2.2 1 2.7 0 1-12.5 7.2-52 25.9-5.8 2.7-14.8 7-20 9.4-5.2 2.5-12.9 6.2-17 8.1-4.1 2-14.2 6.7-22.3 10.6-8.2 3.9-15 7.1-15.2 7.1-.1 0-7.6 3.5-16.6 7.9-9 4.3-20 9.5-24.4 11.6-22.5 10.6-38.6 18.2-59 28-6 2.9-16.4 7.9-23 11-6.6 3.2-12.4 6-13 6.3-2 .9 6.4-6.9 29.5-27.7 12.9-11.7 25.6-23.1 28.1-25.4 2.5-2.3 7.2-6.5 10.5-9.4 3.2-2.8 24.1-21.6 46.4-41.7 22.3-20.2 43.2-39 46.4-41.9 7.7-6.8 9.2-8.1 48.6-44 18.4-16.8 33.8-30.6 34.2-30.6.4-.1 1 1.4 1.3 3.1zm335.3 93.5c-1.1 6.5-2.3 12.7-2.8 13.8-.5 1.1-2.5 11.9-4.5 24s-4 23.1-4.5 24.5c-.5 1.4-2.8 13.5-5 27s-4.4 25.4-4.9 26.5c-.5 1.1-2.5 12.1-4.5 24.5-2.1 12.4-4.2 23.4-4.7 24.5-.5 1.1-2.9 13.5-5.3 27.5-2.5 14-6 34-7.9 44.5-1.9 10.4-4 22.3-4.7 26.3-.7 4-1.5 7.2-1.9 7-.4-.2-16.4-16.5-35.6-36.3-19.1-19.8-43-44.3-52.9-54.5-22.7-23.3-43.1-44.4-66.2-68.6-20.1-21-72.4-75.2-90.8-94.1-6.6-6.8-11.7-12.6-11.4-12.9.3-.3 24.4-1.6 53.4-3 29.1-1.3 60.6-2.9 69.9-3.5 9.4-.5 20.4-1.1 24.5-1.3 4.1-.2 38.8-1.9 77-3.9 38.2-1.9 72.9-3.5 77.1-3.6l7.6-.1-1.9 11.7zm7.3 3.8c.5 1.1 2.5 9 4.4 17.5 2 8.5 4.2 17.6 5.1 20.2.8 2.6 3.3 11.8 5.4 20.5 2.1 8.7 6.2 24.8 9 35.8 2.8 11 7.1 27.9 9.5 37.5 2.4 9.6 5 20 5.9 23 .9 3 3 11.3 4.6 18.5 1.7 7.1 3.4 13.9 3.9 15 .5 1.1 2.8 10.1 5.2 20 2.3 9.9 4.5 18.6 5 19.5.5.8 2.5 8.9 4.5 18s4 16.9 4.4 17.5c.4.5 1 2.1 1.3 3.5 1.5 7.3 7.8 33.7 8.4 35 .3.8 2.3 8.4 4.3 16.8 3.6 14.7 3.6 15.2 1.6 14.6-2-.6-19-8.3-36.3-16.5-4.5-2.2-8.4-3.9-8.7-3.9-.3 0-6.2-2.7-13.2-6-6.9-3.3-12.9-6-13.3-6-.3 0-4.2-1.8-8.6-3.9-4.4-2.1-13.2-6.2-19.5-9.1-6.3-2.8-14.6-6.7-18.5-8.5-3.8-1.9-9.4-4.4-12.3-5.6-3.8-1.6-5.1-2.6-4.8-3.8.3-.9 1.7-8.8 3.1-17.6 1.5-8.8 3-17.1 3.5-18.5.5-1.4 2.5-12 4.5-23.5 1.9-11.6 4-22.8 4.6-25.1 1-3.9 4.4-22.5 14.4-78.9 2.4-13.8 4.9-26.6 5.5-28.5.6-1.9 2.8-13.6 5-26 2.1-12.4 4.6-25.7 5.4-29.5.8-3.9 2.3-11.5 3.2-17 1-5.5 1.9-9.3 2.1-8.5.3.8.9 2.4 1.4 3.5zm-331.6 19.1c-2.5 8.7-6.4 22.4-8.6 30.4-2.1 8-4.3 15.2-4.8 16.1-.5.9-2.8 8.7-5.1 17.4-2.2 8.7-4.5 16.6-5 17.5-.5.9-2.5 7.9-4.5 15.6-1.9 7.6-3.9 14.6-4.4 15.5-.5.9-2.8 8.5-5 17-2.3 8.5-4.6 16.3-5.1 17.4-.5 1.1-2.8 9-5 17.5s-4.5 16.2-4.9 17.1c-.5.9-2.6 7.8-4.6 15.5-2 7.6-4.1 14.6-4.5 15.4-.5.8-2.7 8.7-5 17.5s-4.5 16.4-5 17c-.4.5-2.4 7.5-4.5 15.5-2 8-4.1 15.2-4.5 16-.5.8-2.7 8.5-4.9 17-2.3 8.5-4.6 16.4-5.1 17.5-1.2 2.6-7 24.1-7 26 0 2.6-1.9 1.6-4.4-2.4-2.5-3.8-22.2-30.1-24.9-33.1-.8-.8-3.1-4-5.2-7s-9.1-12.3-15.4-20.5c-6.4-8.3-12.5-16.2-13.4-17.8-1-1.5-8-10.9-15.7-21-16.4-21.5-38.1-50.2-48.6-64.2-4.1-5.5-10.9-14.7-15.2-20.3-4.2-5.7-12.6-16.7-18.5-24.4-6-7.7-10.5-14.4-10-14.8.4-.5 12.7-6.4 27.3-13.3 31.5-14.8 51.8-24.5 81.7-38.8 5.7-2.7 15.1-7.2 21.1-10 21.8-10.4 28.9-13.8 39.2-18.7 5.8-2.7 13.9-6.5 18-8.2 4.1-1.8 7.7-3.6 8-3.9.3-.4 3-1.7 6-3 5-2.1 13.9-6.3 40-18.9 5.2-2.5 13.8-6.5 19-9 5.2-2.4 10.2-4.8 11-5.2.8-.4 1.6-.7 1.7-.6.2.2-1.8 7.4-4.2 16.2zm38 12.1C356.8 184.3 405 234 422 251.5c8.6 8.8 31 32 49.9 51.5s41.3 42.7 49.9 51.6c21 21.4 24.6 25.6 23 26.5-.7.4-6 1.7-11.8 2.9-5.8 1.3-11.2 2.7-12 3.1-.8.5-9.6 2.7-19.5 4.9s-18.9 4.4-20 5c-1.1.5-9.2 2.5-18 4.5-8.8 1.9-16.9 4-18 4.5-1.1.5-10.1 2.8-20 5s-18.9 4.5-20 5c-1.1.5-9.2 2.5-18 4.5s-16.7 3.8-17.5 4.2c-.8.3-1.9.7-2.5.8-.5 0-1.7.4-2.5.7-.8.4-8.7 2.3-17.5 4.3-8.8 1.9-16.9 4-18 4.5-1.1.5-10.1 2.8-20 5s-18.9 4.4-20 5c-1.1.5-9.2 2.5-18 4.5-8.8 1.9-16.9 4-18 4.5-1.1.5-10.1 2.8-20 5s-18.9 4.4-20 5c-2.4 1.1-29.6 7.2-30.1 6.7-.5-.4 3.3-14.5 4.6-17.2.5-1.1 2.5-8.1 4.5-15.5s4.2-15.1 5-17.1c.7-2 3-10.1 5.1-18 2-7.9 4-14.9 4.4-15.4.5-.6 2.4-7.1 4.4-14.5 1.9-7.4 4.4-16 5.5-19 1.1-3 3.4-11.1 5.1-18 1.7-6.9 3.5-12.9 3.9-13.5.5-.5 2.3-6.6 4-13.5 1.8-6.9 4.1-15.1 5.2-18.2 1-3.1 3.5-11.7 5.4-19 2-7.3 3.9-14 4.2-14.8.8-2 .8-2 3.8-12.5 5-18 5.6-20 6.5-22 .9-1.9 6.1-21.1 8.2-30 .5-2.1 1.3-4.4 1.8-5 .4-.5 2.5-7.5 4.5-15.5 2.1-7.9 4.1-15.1 4.6-16 .5-.8 2.7-8.5 5-17 2.2-8.5 4.7-16.9 5.5-18.7.8-1.7 1.4-3.7 1.4-4.5 0-1.2.9-2.8 1.5-2.8 0 0 12.2 12.5 27 27.7zM24.5 275c6.6 8.5 12.9 16.7 13.8 18.3 1 1.5 7.9 10.8 15.5 20.7 7.5 9.9 16.5 21.7 19.9 26.2 3.4 4.6 9 11.9 12.3 16.2 3.4 4.3 7.8 10.2 9.7 13 2 2.8 4.2 5.8 4.9 6.6 1.6 1.8 18.4 24.1 23.4 30.9 1.9 2.7 8.2 11.1 14 18.6 5.8 7.5 12 15.7 13.8 18.3 1.9 2.6 4.4 6 5.8 7.7 4.2 5.1 16.6 21.9 17 23.1.5 1.2-17 27.4-40.8 61.4-5.4 7.6-9.8 14.1-9.8 14.5 0 .3-2.8 4.5-6.2 9.3-3.5 4.8-9.9 14-14.2 20.5-8.3 12.3-8.7 12.6-10 5.3-.4-2.1-1.2-4.6-1.7-5.5-.5-.9-2.7-9-4.8-18.1-2.2-9.1-6.3-25.5-9.1-36.5-2.9-11-6.7-26.1-8.5-33.5-1.8-7.4-4-16.2-5-19.5-.9-3.3-3.6-13.9-6-23.5s-6.4-25.8-9-36c-2.5-10.2-5-19.4-5.5-20.5-.5-1.1-2.1-7.4-3.5-14-1.5-6.6-3.6-15.2-4.7-19-1.1-3.9-3.8-14.4-5.9-23.5-2.2-9.1-4.4-17.4-4.9-18.5-.9-1.9-2.7-9.2-7-28-1.1-5-2.4-9.9-2.9-11-.6-1.1-1.9-6.2-3.1-11.2-1.1-5.1-2.3-10.1-2.6-11-.3-1.1.2-.9 1.3.7 1 1.3 7.2 9.4 13.8 18zM547 386.9c0 1.2-4.8 14.2-6.1 16.5-.6 1-2.5 5.9-4.3 11-1.8 5-4.2 11.1-5.3 13.6-1.1 2.5-3.5 8.8-5.4 14-1.8 5.2-3.8 10.4-4.5 11.5-.7 1.1-2.9 6.7-4.9 12.5-2.1 5.8-4.1 10.9-4.5 11.5-.4.5-2.4 5.7-4.4 11.5-2.1 5.7-4.2 11-4.8 11.7-.6.7-.7 1.3-.3 1.3.4 0 .2.6-.4 1.4-.6.7-2 4-3.1 7.2-2.2 6.3-10.4 27.5-15.1 38.9-1.5 3.8-4.2 10.8-5.9 15.5-1.7 4.7-3.8 10-4.7 11.9-.8 1.9-3.1 7.7-4.9 12.9-1.9 5.3-3.8 10-4.3 10.6-.4.6-2.5 6-4.6 12.1-2.1 6-4.4 11.9-5.1 13-.7 1.1-2.9 6.7-4.9 12.5-2.1 5.8-4.1 10.9-4.5 11.5-.4.5-2.4 5.6-4.3 11.2-5.1 14.5-7.9 20.4-9.5 19.8-1.6-.6-6.4-4.5-38.2-31.2-13.5-11.3-26.9-22.4-29.9-24.7-2.9-2.2-14.4-11.8-25.5-21.1-11.1-9.4-21.7-18.3-23.6-19.8-1.9-1.5-4.8-3.9-6.5-5.3-1.6-1.4-4.6-3.7-6.5-5.2-1.9-1.5-12.5-10.4-23.6-19.7-11-9.4-22.9-19.3-26.3-22-5.7-4.6-48.1-39.9-57.9-48.3-2.4-2-5.2-4.1-6.3-4.6-2.5-1.2-2.4-2.6.1-2.6 1.1 0 2.8-.4 3.8-1 .9-.5 8.9-2.5 17.7-4.5 8.8-2 16.9-4 18-4.5 1.1-.5 10.1-2.8 20-5s18.9-4.4 20-5c1.1-.5 9.2-2.5 18-4.5 8.8-1.9 16.9-4 18-4.5 1.1-.5 10.1-2.8 20-5s18.9-4.4 20-5c1.1-.5 9.2-2.5 18-4.5s16.7-3.9 17.5-4.2c.8-.4 2-.8 2.5-.8.6-.1 1.7-.5 2.5-.8.8-.3 8.9-2.2 18-4.2s17.9-4.3 19.7-5.1c1.7-.8 3.7-1.4 4.5-1.4 2.2 0 32.2-7 34.3-8 1.1-.6 9.2-2.6 18-4.5 8.8-2 16.9-4 18-4.5 1.1-.5 10.1-2.8 20-5s18.9-4.5 20-5c1.7-.8 8-2.5 10.8-2.9.4-.1.7.3.7.8zm12.7 1.6c2.4 1.4 6 3.2 8.1 3.9 3.3 1.2 9.9 4.3 31.7 14.6 3.3 1.6 9.8 4.5 14.5 6.5 9.1 4 18.1 8.2 32.6 15.1 5 2.4 9.4 4.4 9.8 4.4.7 0 16.4 7.3 27.9 13l7.7 3.8-32.7 29.6c-18.1 16.3-35.1 31.8-38 34.4-2.9 2.6-7.6 6.8-10.5 9.3-2.9 2.6-20.8 18.7-39.8 35.9-45.2 40.9-45.7 41.4-51.5 46.5-2.7 2.4-21.4 19.2-41.5 37.4-20.1 18.1-36.6 32.8-36.8 32.6-.4-.4 4.9-15.7 5.9-17 .9-1.2 7.7-18.8 14-36 2.2-6 4.4-11.4 4.9-12 .4-.5 1.8-3.9 3-7.5s3.8-10.3 5.7-15c1.9-4.7 4.9-12.3 6.5-17 1.7-4.7 3.4-9 3.8-9.5.5-.6 2.7-6.2 5-12.5 2.2-6.3 4.9-13.3 5.9-15.5 1-2.2 3.1-7.6 4.6-12 1.6-4.4 3.4-8.9 4-10 .7-1.1 2.9-7 5-13 2.1-6.1 4.2-11.5 4.7-12.1.5-.7 2.6-5.8 4.7-11.5 2.2-5.7 5.8-15.4 8-21.4 2.3-6.1 5.2-13.3 6.6-16 1.3-2.8 2.7-6.4 3.1-8 .4-1.7 2-6.2 3.7-10 1.6-3.9 4.4-11.1 6.2-16 4.6-12.6 6.8-17.5 7.9-17.5.5 0 2.9 1.1 5.3 2.5zm-364.4 104c8.2 6.9 16.5 13.7 18.5 15.2 2 1.6 9.8 7.9 17.2 14.1 16.7 14.1 41.2 34.4 50.5 42 3.8 3.1 14.3 11.9 23.2 19.4 8.9 7.6 16.6 13.8 17 13.8.5 0 1.4.9 2.1 2 .7 1.1 2.6 2.9 4.2 3.9 1.7 1 14 11.1 27.5 22.4 13.4 11.4 24.6 20.7 24.9 20.7.2 0 1.8 1.2 3.4 2.8 1.7 1.5 10.7 9 20 16.7 9.4 7.7 17.1 14.2 17.1 14.5.1.6-18.9-4-24.4-5.8-1.6-.6-10-2.7-18.5-4.7s-16.4-4-17.5-4.5c-1.1-.5-6.9-2.1-13-3.5-16-3.6-23.5-5.6-26.5-6.8-.8-.4-6.6-1.8-12.9-3.2-13.6-3.1-21.8-5.2-23-5.9-.4-.3-8.9-2.4-18.7-4.7-9.8-2.2-18.7-4.5-19.6-5-.9-.5-8.8-2.5-17.5-4.5s-16.5-4-17.5-4.5c-.9-.5-9.4-2.7-19-4.9-9.5-2.2-18.2-4.4-19.3-4.9-1.1-.6-7.2-2.2-13.5-3.6-14.5-3.4-22.9-5.6-26-6.8-1.6-.6-13.6-3.5-26-6.3-4.1-.9-7.9-2-8.4-2.5-.9-.8 2.3-6 12.6-20 2.6-3.7 4.8-6.9 4.8-7.3 0-.4 4.5-7.1 10-14.9 5.5-7.8 10.9-15.6 12-17.2 1.1-1.7 6.2-9 11.3-16.3 5-7.3 10.8-15.7 12.7-18.7 6.4-9.9 16.1-23.5 16.9-23.5.4 0 7.3 5.6 15.4 12.5z" />
    <path fill="#bebebe"
      d="M271.1 11.7c.5 2.1 3.1 15.9 5.9 30.8 8.2 44.8 11.2 61 11.4 61.2.1.2 31.6-1.5 40.6-2.2 3-.2 43.5-2.2 90-4.4s90.1-4.5 97-5c6.9-.6 25.2-1.6 40.7-2.3 15.5-.6 28.1-1.3 28-1.5-.2-.2-38.5-10.1-86.7-22.3-26.9-6.9-78.7-20.2-107.5-27.6-23.4-6-82.1-21.1-107-27.5-6-1.6-11.5-2.9-12.1-2.9-.9 0-.9 1.1-.3 3.7z" />
    <path fill="#888"
      d="M221.5 48.2c-23.1 20.9-56.8 51.4-74.9 67.7-18.1 16.3-35.2 31.7-38 34.2-17.3 15.6-78.1 70.2-82.6 74.2l-5.5 4.9 6-3.1c3.3-1.6 10.3-5 15.5-7.4 5.2-2.5 15.2-7.2 22.3-10.6 7-3.4 12.9-6.1 13.2-6.1.2 0 8.8-4.1 19.2-9.1 10.3-5 22.4-10.8 26.8-12.9 14.2-6.8 29.8-14.2 39-18.5 5-2.4 13.7-6.5 19.5-9.3 5.8-2.7 13.9-6.5 18-8.5 4.1-1.9 14.2-6.7 22.3-10.6 8.2-3.9 15-7.1 15.2-7.1.2 0 8.7-4.1 19-9 10.2-5 20.2-9.7 22.1-10.5 2.6-1.1 3.4-1.9 3-3.2-.3-1-1.5-7.4-2.6-14.3-1.2-6.9-2.7-15.2-3.5-18.5-.7-3.3-3-15.5-5-27-2-11.6-4-22.4-4.5-24-.5-1.7-1.1-4.5-1.2-6.3-.1-1.7-.5-3.2-.8-3.1-.3 0-19.4 17.2-42.5 38.1z" />
    <path fill="#A7A7A7"
      d="M545.5 96.5c-25.3 1.3-53.4 2.8-62.5 3.4-9.1.6-40.1 2.3-69 3.6-45 2.1-102.4 5-116.7 5.8-2.4.1-4.3.4-4.3.5 0 .2 20.8 21.8 46.2 48 25.5 26.3 59.5 61.4 75.8 78.2 28.3 29.3 51 52.8 59.5 61.5 2.2 2.2 14.8 15.3 28 29s29.2 30.3 35.6 36.9l11.6 11.9 1.7-7.4c.9-4.1 3.4-17.8 5.6-30.4 2.3-12.7 4.5-24.6 5-26.5.5-1.9 2.5-13 4.5-24.5 2-11.6 4-22.6 4.5-24.5.5-1.9 2.3-11.4 4-21 1.7-9.6 4.6-25.6 6.5-35.5 4.3-22.8 9.6-51 14.6-78.5 2.1-11.8 4.3-23.3 4.9-25.5 1.8-7.3 1.6-7.5-4.2-7.4-2.9.1-26 1.2-51.3 2.4z" />
    <path fill="#717171"
      d="M605.6 111.5c-.7 7.1-1.1 9.4-2.1 11.7-.4 1-.5 2.5-.2 3.3.4.8.2 1.7-.3 2-.4.3-1.1 2.4-1.5 4.8-1.8 12.6-2.9 17.7-3.7 17.7-.5 0-.7.9-.3 1.9.7 2.3-1.2 14.6-2.7 17.8-.6 1.2-.8 2.8-.5 3.6.3.8.3 1.8-.1 2.2-.4.4-2.4 10.2-4.5 21.8-2.1 11.7-4 22.5-4.3 24.2-.3 1.6-.7 4.2-.7 5.7-.1 1.6-.4 2.8-.8 2.8-.3 0-1.1 3.5-1.8 7.7-.7 4.3-2.2 12.7-3.3 18.8-1 6-2 11.6-2 12.2-.1.7-.5 1.3-1 1.3s-.9 1.7-.7 3.7c.1 2.1-.1 4.5-.4 5.3-.6 1.3-7.4 39.2-8.1 44.6-.1 1.1-.5 2.4-.8 3-.3.5-2 9.7-3.8 20.4-1.8 10.7-3.5 19.7-3.9 20-.3.3-.6 2.1-.7 4-.1 1.9-.4 4.4-.8 5.5-.8 2.3 1.7 3.7 24.4 14 6.9 3.1 14.4 6.5 16.8 7.6 2.3 1 4.5 1.8 4.8 1.8.4 0 1 .3 1.3.8.6.9 14.3 7.1 17.6 8.1 1.1.3 2.2.8 2.5 1.2.3.4 5 2.7 10.5 5s10.5 4.6 11 5c.6.4 4.4 2.2 8.5 4 10 4.3 22.9 10.3 31.3 14.5 7.3 3.6 8.1 3.2 5.2-2.8-.8-1.8-3-10.4-5-19.2-2-8.7-4-16.4-4.5-17.1-.6-.6-.7-1.3-.4-1.7.3-.3.1-1.4-.5-2.4-.5-1.1-2.6-9.1-4.6-17.9-1.9-8.7-3.8-16.6-4.2-17.4-.3-.8-.7-2-.8-2.5 0-.6-.4-1.7-.7-2.5-.4-.8-2.1-7.8-3.9-15.5-1.7-7.7-3.6-14.2-4-14.3-.5-.2-.6-.8-.3-1.4.4-.5.2-2-.4-3.1-.6-1.2-2.9-9.9-5.2-19.2-2.2-9.4-4.3-17.9-4.6-19-.4-1.1-.7-3-.8-4.3 0-1.2-.4-2.2-.7-2.2-.3 0-1.8-5.7-3.4-12.8-1.6-7-3.1-12.9-3.4-13.2-.3-.3-.7-1.2-.8-2-.7-4.4-8.6-36.6-9.2-37-.3-.3-.7-1.2-.8-2-.8-5.7-8.7-36.6-9.6-37.1-.5-.4-.7-1.6-.4-2.7.2-1.2.2-2.2-.2-2.4-.4-.2-1.5-3.9-2.5-8.3s-2.5-11.2-3.4-15c-.9-3.9-1.8-7.2-2.1-7.5-.3-.3-.7-1.2-.8-2-.2-.8-1.8-7.8-3.7-15.5l-3.4-14-.6 6z" />
    <path fill="#A3A3A3"
      d="M271.5 117c-4.4 2.1-12.7 6.1-18.5 8.8C197.6 151.9 9.3 241.4 8.6 242c-.5.5 1.2 3.5 3.6 6.7 2.4 3.2 7.8 10.3 12 15.8 4.1 5.5 16.5 21.8 27.4 36.3C62.5 315.3 73.1 329.3 75 332c1.9 2.7 14.3 19.2 27.6 36.7 13.2 17.5 35.5 47 49.5 65.5 22.5 30 25.5 33.5 26.2 31.5.9-2.1 5.7-18.6 13.7-47.2 2.2-7.7 4.7-16 5.5-18.5.8-2.5 3.3-10.8 5.5-18.5 6.1-21.7 12.2-43.2 18.5-64.5 6.3-21.3 12.4-42.9 18.5-64.5 2.2-7.7 4.9-16.7 6-20 1-3.3 3.2-10.7 4.8-16.5 1.6-5.8 6-20.9 9.7-33.5 3.7-12.7 8.2-28.4 10.1-35 1.9-6.6 4.9-17.1 6.8-23.3 1.8-6.1 3.1-11.2 2.7-11.2-.3 0-4.2 1.8-8.6 4z" />
    <path fill="#fff"
      d="M285.5 118.6c-.9 3.2-2.2 7.7-3 9.9-.8 2.2-3.5 11.4-6.1 20.5-2.5 9.1-6.6 23.2-9 31.5-11.1 38.3-14.8 51-18.5 64.5-2.2 8-4.4 15.4-4.9 16.5-.5 1.1-3 9.4-5.6 18.5-9.2 33.3-12.5 44.6-14.4 50.5-1.1 3.3-3.5 11.6-5.4 18.5-1.9 6.9-5.8 20.4-8.6 30-11.5 39.6-14 48.2-18.5 64-2.5 9.1-5.5 18.9-6.6 21.9-1.1 2.9-1.8 5.5-1.7 5.7.4.3 10.2-2 40.8-9.6 52.4-13.2 76.9-19.3 116.5-29.2 11-2.7 27.9-6.9 37.5-9.3 38.6-9.7 58.3-14.6 76-18.9 10.2-2.4 19.3-4.8 20.3-5.2 1.8-.7 20.9-5.4 54.6-13.5 9-2.1 16.6-4.1 16.8-4.2.2-.2-16.6-17.9-37.3-39.3-20.8-21.4-46.7-48.3-57.8-59.8-11.1-11.5-27.6-28.6-36.7-38-9.1-9.4-38.1-39.4-64.4-66.6-26.3-27.2-51.1-52.8-55.1-56.9l-7.2-7.4-1.7 5.9z" />
    <path fill="#606060"
      d="M12.8 266c-.3 1.6-.1 3 .3 3s1.3 2.6 1.9 5.7c.7 3.2 1.5 6.2 1.8 6.8.4.5.7 1.4.7 2 .1.5.4 1.7.7 2.5.4.8 1.8 6.7 3.2 13 1.5 6.3 3.1 13.1 3.6 15.1.6 2 1 4.6 1 5.8 0 1.3.4 1.9 1.1 1.6.6-.4.9-.1.8.6-.1.8.1 2.1.4 2.9.3.8 2.2 8.9 4.3 18 2 9.1 3.9 16.9 4.2 17.5.4.5.5 1.8.4 2.7-.2 1 .2 1.8.8 1.8.8 0 1 .9.6 2.5s-.2 2.5.5 2.5c.6 0 .9.9.6 2-.3 1 0 2.1.5 2.2.5.2 1 2.3 1.1 4.6.1 2.3.5 4.2.9 4.2s1.2 2.6 1.8 5.7c.7 3.2 1.6 6.3 2.1 6.9.5.6.6 1.4.2 1.7-.3.4-.1 1.2.4 1.9.6.7 2.7 8.9 4.8 18.3 2.1 9.3 4.2 17.2 4.6 17.3.5.2.6.8.3 1.3-.3.6 0 1.6.6 2.4.7.8 1 2.4.7 3.4-.3 1.1-.1 2.1.3 2.3.4.2 2.2 6.6 3.9 14.2 1.8 7.7 3.7 14.8 4.2 15.8.6 1.1.8 2.6.5 3.4-.3.8 0 1.4.5 1.4.6 0 .9.9.6 2-.3 1.1-.1 2 .5 2s.8 1.1.6 2.5c-.3 1.4-.2 2.5.2 2.5.5 0 1.6 3.5 2.5 7.7.9 4.3 2.1 8.2 2.5 8.7.5.5.6 1.5.3 2.2-.3.8 0 2 .6 2.8.6.7.8 1.6.4 1.9-.3.4-.1 1.2.4 1.9 1 1.3 3.3 10.4 6.9 27.3.9 4.4 2 8.2 2.4 8.5.4.3 2.6 8.4 4.9 18 2.2 9.6 4.3 18.2 4.5 19 .3.8.5 1.8.5 2.2.2 2 2.1.3 5.5-4.7 2-3 3.6-5.7 3.6-5.9 0-.3 1.1-1.7 2.5-3.2 1.4-1.5 2.5-3 2.5-3.5 0-.4 3.4-5.5 7.5-11.2 4.1-5.8 7.5-10.9 7.5-11.5 0-.5.7-1.3 1.6-1.6.8-.3 1.2-1 .9-1.6-.3-.5-.2-1 .4-1 .6 0 1.8-1.4 2.6-3 .9-1.7 4.3-6.8 7.5-11.4 3.3-4.6 6-8.8 6-9.5 0-.6.4-1.1.9-1.1s2.4-2.4 4.1-5.3c3-4.8 21.8-31.6 23-32.7.3-.3.6-1.2.8-2 .2-.8.9-1.9 1.6-2.4 1-.7-.2-2.8-4.8-8.9-3.4-4.4-7.3-9.7-8.9-11.9-3.8-5.4-23.4-30.9-25.2-32.9-.8-.9-1.5-1.9-1.5-2.3 0-.4-1.8-3-3.9-5.9-9-11.9-24.1-31.3-25.5-32.8-.9-.9-1.6-1.9-1.6-2.3 0-.4-6-8.4-13.2-17.9-7.3-9.5-14.6-19.1-16.2-21.5-1.6-2.3-3.3-4.2-3.7-4.2-.5 0-.8-.4-.6-.8.1-.4-4.3-6.5-9.8-13.6-5.5-7-11.6-15.1-13.5-17.9-2-2.9-9-12.2-15.6-20.7-6.7-8.5-12.6-16.5-13.3-17.8-1.6-3-2.8-2.8-3.3.8z" />
    <path fill="#dcdcdc"
      d="M545.7 386.6c-.3.4-9.5 2.8-20.4 5.4-18.5 4.5-33.7 8.3-78.8 19.6-9.9 2.5-26.1 6.4-36 8.8-9.9 2.4-20.2 5.1-23 5.9-2.7.8-28.2 7.2-56.5 14.1-28.3 6.9-52.8 13-54.5 13.5-1.6.6-17.8 4.6-36 9-18.1 4.5-37.1 9.2-42.1 10.6-4.9 1.4-9.8 2.5-10.7 2.5-.9 0-1.7.3-1.6.7.1.8 15.7 13.9 40.8 34.3 6.4 5.2 21.8 18 34.1 28.3 12.4 10.3 24.1 20.1 26 21.6 1.9 1.6 13.6 11.4 26 21.7 12.4 10.4 24.6 20.6 27.2 22.6 2.5 2.1 5.6 4.6 6.9 5.7 5.9 4.9 50.4 42 66.3 55.1 9.6 7.9 17.8 14.6 18.3 14.7.4.2 1.8-2.3 2.9-5.4 1.2-3.2 4.2-11 6.7-17.3 8.3-21.1 15.8-40.4 19.8-51 2.1-5.8 4.4-11.4 4.9-12.5.6-1.1 3.1-7.4 5.6-14 4.4-11.5 6.9-18 18.4-47.5 11.5-29.5 14-36 18.4-47.5 2.5-6.6 5-12.9 5.6-14 .9-1.9 4.5-11.1 14.1-36.5 2.2-5.8 4.6-11.9 5.3-13.5.8-1.7 2.5-6.2 3.9-10 1.4-3.9 4.1-11 6.2-15.9 3.3-8 4-10.7 2.2-9z" />
    <path fill="#a8a8a8"
      d="M553 388.4c-.4 1.1-1.5 3.9-2.5 6.1-.9 2.2-3.4 8.5-5.5 14-5.8 15.2-18 46.5-28 72-2.8 7.1-7.1 18.2-9.5 24.5-2.4 6.3-6.7 17.3-9.5 24.5-2.8 7.1-7.3 18.6-10 25.5-8.5 22-22.4 57.8-29 74.5-2.8 7.1-6.6 17-8.5 22-1.8 4.9-4.7 12.4-6.4 16.4-3 7.1-3 7.4-.9 5.5 1.3-1.2 13.6-12.2 27.3-24.5 13.8-12.3 34.5-30.9 46.1-41.4 11.5-10.4 24.6-22.2 28.9-26 4.3-3.9 24.3-21.9 44.4-40.1 20.2-18.1 51-45.9 68.6-61.8 17.6-15.8 32.1-29 32.2-29.4.3-.6-15.6-8.2-49.7-23.8-6.3-2.8-20.7-9.5-32-14.7-11.3-5.2-25.7-11.8-32-14.6-6.3-2.9-14.1-6.5-17.3-8-5.8-2.8-5.9-2.8-6.7-.7z" />
    <path fill="#8c8c8c"
      d="M178 482.4c-2.3 3.7-27.5 40.5-50 73.1-14.3 20.6-28 40.9-28 41.5 0 .3 2.1 1.1 4.8 1.7 2.6.6 13.7 3.5 24.7 6.3 11 2.9 27.7 7.2 37 9.6 9.4 2.3 24.9 6.3 34.5 8.8 30.8 7.9 56.9 14.6 114 29.3 11.8 3 29.2 7.5 38.5 9.9 9.4 2.3 26.7 6.7 38.5 9.8 11.8 3 22.8 5.9 24.4 6.5 1.6.7 3 1 3.2.9.1-.2-2.5-2.6-5.9-5.5-3.4-2.8-19-15.7-34.7-28.7-15.7-13.1-39.7-33-53.5-44.5-13.7-11.4-52-43.2-85-70.7-33-27.4-60.2-50-60.5-50.1-.3-.2-1.2.8-2 2.1z" />
  </g>
</svg>