<svg xmlns="http://www.w3.org/2000/svg" width="800" height="843" shape-rendering="geometricPrecision"
  text-rendering="geometricPrecision" image-rendering="optimizeQuality" fill-rule="evenodd" clip-rule="evenodd">
  <path fill="#131313"
    d="M401.5 26.5c-.073 1.527.594 2.527 2 3 7.929 7.177 14.429 15.51 19.5 25 6.834 11.679 12.001 24.012 15.5 37-.09 2.652.576 4.986 2 7 10.425 47.406 7.259 94.073-9.5 140-8.423 23.4-21.923 43.233-40.5 59.5-28.539 19.698-57.539 20.532-87 2.5-.473-1.406-1.473-2.073-3-2a27.68 27.68 0 01-8-6c-.473-1.406-1.473-2.073-3-2-1.667-1-3-2.333-4-4-.473-1.406-1.473-2.073-3-2-35.242-34.494-54.909-76.494-59-126 .291-13.071 2.291-25.738 6-38 1.424-2.015 2.09-4.348 2-7 5.435-18.535 13.768-35.535 25-51 1.406-.473 2.073-1.473 2-3 9.667-14.333 21.667-26.333 36-36 1.527.073 2.527-.594 3-2 23.173-15.999 48.506-20.499 76-13.5 10.574 4.428 19.907 10.595 28 18.5z"
    opacity=".999" />
  <path fill="#080000"
    d="M338.5 13.5c19.059-2.82 36.059 1.68 51 13.5 27.139 26.446 42.972 58.612 47.5 96.5 3.727 40.243-1.606 79.243-16 117-8.954 23.603-23.787 42.436-44.5 56.5-25.473 12.276-49.806 10.276-73-6-35.266-27.66-58.099-63.493-68.5-107.5-6.483-56.883 11.017-105.05 52.5-144.5 14.915-12.79 31.915-21.29 51-25.5z" />
  <path fill="#7a7a7a" d="M297.5 21.5c-.473 1.406-1.473 2.073-3 2 .473-1.406 1.473-2.073 3-2z" opacity=".729" />
  <path fill="#898989" d="M401.5 26.5c1.406.473 2.073 1.473 2 3-1.406-.473-2.073-1.473-2-3z" opacity=".651" />
  <path fill="#121212"
    d="M662.5 81.5c-.073 1.527.594 2.527 2 3 12.443 15.221 20.943 32.555 25.5 52 16.889 76.649-6.611 137.149-70.5 181.5-19.688 13.79-41.355 23.123-65 28-12.184 2.155-24.184 1.988-36-.5-2.015-1.424-4.348-2.09-7-2-7.374-1.519-13.707-4.852-19-10-.473-1.406-1.473-2.073-3-2-14.544-13.078-23.378-29.412-26.5-49-4.782-49.923 4.718-96.923 28.5-141 1.406-.473 2.073-1.473 2-3 1.574-4.82 3.907-9.153 7-13 1.406-.473 2.073-1.473 2-3 1.406-.473 2.073-1.473 2-3 1.406-.473 2.073-1.473 2-3 1.406-.473 2.073-1.473 2-3a55.849 55.849 0 0111-14c2.087-1.085 3.42-2.751 4-5 2.927-1.257 5.261-3.257 7-6 18.395-18.034 40.395-29.534 66-34.5 26.997-2.664 48.997 6.503 66 27.5z"
    opacity=".999" />
  <path fill="#7d7d7d" d="M258.5 59.5c.073 1.527-.594 2.527-2 3-.073-1.527.594-2.527 2-3z" opacity=".518" />
  <path fill="#080000"
    d="M596.5 62.5c16.62-2.262 31.62 1.571 45 11.5 22.711 18.903 36.544 43.07 41.5 72.5 11.947 62.175-6.22 113.342-54.5 153.5-20.269 16.97-43.269 28.97-69 36-19.308 4.699-37.974 3.032-56-5-14.806-9.74-24.639-23.24-29.5-40.5-5.128-20.51-5.794-41.176-2-62 7.598-45.509 25.264-86.509 53-123 19.5-21.662 43.334-35.995 71.5-43z" />
  <path fill="#8e8e8e" d="M662.5 81.5c1.406.473 2.073 1.473 2 3-1.406-.473-2.073-1.473-2-3z" opacity=".647" />
  <path fill="#6f6f6f" d="M530.5 88.5c-1.739 2.743-4.073 4.743-7 6 1.739-2.743 4.073-4.743 7-6z" opacity=".745" />
  <path fill="#686868" d="M438.5 91.5c1.424 2.014 2.09 4.348 2 7-1.424-2.014-2.09-4.348-2-7z" opacity=".902" />
  <path fill="#8d8d8d" d="M523.5 94.5c-.58 2.249-1.913 3.915-4 5 .58-2.249 1.913-3.915 4-5z" opacity=".537" />
  <path fill="#7a7a7a" d="M508.5 113.5c.073 1.527-.594 2.527-2 3-.073-1.527.594-2.527 2-3z" opacity=".51" />
  <path fill="#696969" d="M231.5 113.5c.09 2.652-.576 4.985-2 7-.09-2.652.576-4.985 2-7z" opacity=".886" />
  <path fill="#7b7b7b" d="M506.5 116.5c.073 1.527-.594 2.527-2 3-.073-1.527.594-2.527 2-3z" opacity=".494" />
  <path fill="#8b8b8b" d="M504.5 119.5c.073 1.527-.594 2.527-2 3-.073-1.527.594-2.527 2-3z" opacity=".412" />
  <path fill="#a1a1a1" d="M502.5 122.5c.073 1.527-.594 2.527-2 3-.073-1.527.594-2.527 2-3z" opacity=".306" />
  <path fill="#a0a0a0" d="M493.5 138.5c.073 1.527-.594 2.527-2 3-.073-1.527.594-2.527 2-3z" opacity=".306" />
  <path fill="#151414"
    d="M200.5 238.5c-.073 1.527.594 2.527 2 3a25.658 25.658 0 016 6c-.073 1.527.594 2.527 2 3 1 .333 1.667 1 2 2-.073 1.527.594 2.527 2 3 2.741 2.475 4.741 5.475 6 9-.073 1.527.594 2.527 2 3 25.861 45.268 30.028 92.601 12.5 142-15.379 37.043-41.212 63.876-77.5 80.5-16.957 6.548-34.29 8.048-52 4.5-2.015-1.424-4.348-2.09-7-2-7.467-1.403-14.134-4.403-20-9-.473-1.406-1.473-2.073-3-2-.473-1.406-1.473-2.073-3-2-27.149-18.846-40.149-45.013-39-78.5.431-17.651 3.098-34.818 8-51.5 1.424-2.015 2.09-4.348 2-7 9.148-34.739 25.148-65.739 48-93 1.406-.473 2.073-1.473 2-3 2.333-3 5-5.667 8-8 3.264-1.594 5.931-3.927 8-7 26.464-23.561 53.464-24.395 81-2.5a132.101 132.101 0 0010 9.5z"
    opacity=".999" />
  <path fill="#080000"
    d="M145.5 220.5c10.34-.832 20.007 1.335 29 6.5 32.28 22.679 52.446 53.513 60.5 92.5 9.445 49.224-1.888 92.891-34 131-20.871 23.518-47.037 36.518-78.5 39-34.841-3.334-60.008-20.667-75.5-52-5.108-16.633-6.774-33.633-5-51 5.974-49.593 24.307-93.927 55-133 8.274-9.28 17.441-17.447 27.5-24.5 6.682-3.942 13.682-6.775 21-8.5z" />
  <path fill="#5a5a5a" d="M109.5 231.5c-2.069 3.073-4.736 5.406-8 7 2.069-3.073 4.736-5.406 8-7z" opacity=".831" />
  <path fill="#949494" d="M200.5 238.5c1.406.473 2.073 1.473 2 3-1.406-.473-2.073-1.473-2-3z" opacity=".58" />
  <path fill="#9b9b9b" d="M93.5 246.5c.073 1.527-.594 2.527-2 3-.073-1.527.594-2.527 2-3z" opacity=".561" />
  <path fill="#898989" d="M208.5 247.5c1.406.473 2.073 1.473 2 3-1.406-.473-2.073-1.473-2-3z" opacity=".671" />
  <path fill="#939393" d="M212.5 252.5c1.406.473 2.073 1.473 2 3-1.406-.473-2.073-1.473-2-3z" opacity=".608" />
  <path fill="#8e8e8e" d="M220.5 264.5c1.406.473 2.073 1.473 2 3-1.406-.473-2.073-1.473-2-3z" opacity=".384" />
  <path fill="#929292" d="M282.5 284.5c1.527-.073 2.527.594 3 2-1.527.073-2.527-.594-3-2z" opacity=".608" />
  <path fill="#838383" d="M289.5 290.5c1.527-.073 2.527.594 3 2-1.527.073-2.527-.594-3-2z" opacity=".71" />
  <path fill="#919191" d="M300.5 298.5c1.527-.073 2.527.594 3 2-1.527.073-2.527-.594-3-2z" opacity=".376" />
  <path fill="#818181" d="M489.5 331.5c1.527-.073 2.527.594 3 2-1.527.073-2.527-.594-3-2z" opacity=".725" />
  <path fill="#5e5e5e" d="M511.5 343.5c2.652-.09 4.985.576 7 2-2.652.09-4.985-.576-7-2z" opacity=".906" />
  <path fill="#646464" d="M43.5 342.5c.09 2.652-.576 4.985-2 7-.09-2.652.576-4.985 2-7z" opacity=".733" />
  <path fill="#151515"
    d="M734.5 369.5c-.073 1.527.594 2.527 2 3 9.355 11.039 15.855 23.706 19.5 38 13.735 66.321 2.402 127.988-34 185-12.076 17.078-27.909 29.244-47.5 36.5-10.008 1.969-20.008 1.969-30 0-4.673-1.67-9.007-3.837-13-6.5-.473-1.406-1.473-2.073-3-2-.473-1.406-1.473-2.073-3-2-12.164-9.667-21.997-21.334-29.5-35-21.727-40.302-31.061-83.302-28-129 1.125-16.213 6.291-30.88 15.5-44 1.406-.473 2.073-1.473 2-3a27.204 27.204 0 016-8c1.406-.473 2.073-1.473 2-3 1.333-2 3-3.667 5-5 1.406-.473 2.073-1.473 2-3 2.927-1.257 5.261-3.257 7-6 15.162-15.255 33.162-25.922 54-32 2.652.09 4.985-.576 7-2 18.527-4.886 36.194-2.719 53 6.5a43.002 43.002 0 0113 11.5z"
    opacity=".999" />
  <path fill="#595959" d="M668.5 351.5c-2.015 1.424-4.348 2.09-7 2 2.015-1.424 4.348-2.09 7-2z" opacity=".918" />
  <path fill="#080000"
    d="M678.5 356.5c26.449-2.859 46.283 7.141 59.5 30 9.213 17.183 14.546 35.516 16 55 3.636 53.456-8.697 102.79-37 148-8.919 12.253-19.752 22.42-32.5 30.5-19.789 9.991-38.456 8.325-56-5-21.009-20.498-35.509-44.998-43.5-73.5-8.176-26.408-11.509-53.408-10-81 2.416-22.492 11.082-42.158 26-59 20.858-23.716 46.691-38.716 77.5-45z" />
  <path fill="#878787" d="M734.5 369.5c1.406.473 2.073 1.473 2 3-1.406-.473-2.073-1.473-2-3z" opacity=".686" />
  <path fill="#777" d="M607.5 385.5c-1.739 2.743-4.073 4.743-7 6 1.739-2.743 4.073-4.743 7-6z" opacity=".671" />
  <path fill="#8d8d8d" d="M600.5 391.5c.073 1.527-.594 2.527-2 3-.073-1.527.594-2.527 2-3z" opacity=".612" />
  <path fill="#898989" d="M593.5 399.5c.073 1.527-.594 2.527-2 3-.073-1.527.594-2.527 2-3z" opacity=".471" />
  <path fill="#8c8c8c" d="M585.5 410.5c.073 1.527-.594 2.527-2 3-.073-1.527.594-2.527 2-3z" opacity=".412" />
  <path fill="#010101"
    d="M475.5 510.5c-.073 1.527.594 2.527 2 3a138.7 138.7 0 017.5 14 2837.786 2837.786 0 0015.5 40c-.073 1.527.594 2.527 2 3 1.985 3.298 3.985 6.631 6 10 .238 1.904 1.238 3.238 3 4 1 .333 1.667 1 2 2-.073 1.527.594 2.527 2 3a424.237 424.237 0 0018 16.5l52 38a166.139 166.139 0 0119 18.5c-.073 1.527.594 2.527 2 3 2.043 1.079 3.376 2.746 4 5-.073 1.527.594 2.527 2 3 5.845 7.36 9.845 15.693 12 25-.09 2.652.576 4.985 2 7 4.043 22.186 2.876 44.186-3.5 66-10.728 30.386-31.894 49.219-63.5 56.5-28.25 5.608-56.584 5.942-85 1a489.173 489.173 0 01-49-9.5c-.734-1.208-1.067-2.541-1-4h-4c-1.599.268-2.932-.066-4-1-2.015-1.424-4.348-2.09-7-2-1.599.268-2.932-.066-4-1-2.015-1.424-4.348-2.09-7-2a184.675 184.675 0 01-27.5-7c-.739 1.074-1.739 1.741-3 2a647.728 647.728 0 01-38.5-12c-2.015-1.424-4.348-2.09-7-2-2.015-1.424-4.348-2.09-7-2a226.44 226.44 0 01-28-8c-2.015-1.424-4.348-2.09-7-2-2.015-1.424-4.348-2.09-7-2a722.438 722.438 0 01-119-42.5 265.632 265.632 0 01-27-15.5c-.473-1.406-1.473-2.073-3-2-.473-1.406-1.473-2.073-3-2-1.527.073-2.527-.594-3-2-.473-1.406-1.473-2.073-3-2a55.849 55.849 0 01-14-11c-1.085-2.087-2.751-3.42-5-4-33.681-30.744-41.848-67.411-24.5-110a138.781 138.781 0 017.5-14c1.406-.473 2.073-1.473 2-3 1.406-.473 2.073-1.473 2-3 .238-1.904 1.238-3.238 3-4 1.406-.473 2.073-1.473 2-3a57.484 57.484 0 019-9c2.589-.919 4.589-2.586 6-5 7.955-6.479 16.955-11.145 27-14 2.652.09 4.985-.576 7-2 1.068-.934 2.401-1.268 4-1 2.652.09 4.985-.576 7-2a1490.72 1490.72 0 0166-10.5c16.309-2.547 31.643-7.881 46-16a29940.047 29940.047 0 0033-19.5c1.527.073 2.527-.594 3-2 1.014-1.174 2.347-1.84 4-2 1.527.073 2.527-.594 3-2 25.636-15.825 53.302-20.658 83-14.5 29.162 5.917 55.162 18.25 78 37 4.291 4.445 7.958 9.278 11 14.5z" />
  <path fill="#737373" d="M303.5 473.5c-.473 1.406-1.473 2.073-3 2 .473-1.406 1.473-2.073 3-2z" opacity=".769" />
  <path fill="#7f7f7f" d="M296.5 477.5c-.473 1.406-1.473 2.073-3 2 .473-1.406 1.473-2.073 3-2z" opacity=".682" />
  <path fill="gray" d="M72.5 479.5c1.527-.073 2.527.594 3 2-1.527.073-2.527-.594-3-2z" opacity=".463" />
  <path fill="#878787" d="M75.5 481.5c1.527-.073 2.527.594 3 2-1.527.073-2.527-.594-3-2z" opacity=".439" />
  <path fill="#747474" d="M98.5 492.5c2.652-.09 4.985.576 7 2-2.652.09-4.985-.576-7-2z" opacity=".604" />
  <path fill="#8f8f8f" d="M475.5 510.5c1.406.473 2.073 1.473 2 3-1.406-.473-2.073-1.473-2-3z" opacity=".384" />
  <path fill="#515151" d="M148.5 525.5c-2.015 1.424-4.348 2.09-7 2 2.015-1.424 4.348-2.09 7-2z" opacity=".906" />
  <path fill="#5d5d5d" d="M137.5 528.5c-2.015 1.424-4.348 2.09-7 2 2.015-1.424 4.348-2.09 7-2z" opacity=".878" />
  <path fill="#5f5f5f" d="M103.5 544.5c-1.411 2.414-3.411 4.081-6 5 1.41-2.414 3.411-4.081 6-5z" opacity=".871" />
  <path fill="gray" d="M88.5 558.5c.073 1.527-.594 2.527-2 3-.073-1.527.594-2.527 2-3z" opacity=".729" />
  <path fill="#757575" d="M83.5 565.5c.073 1.527-.594 2.527-2 3-.073-1.527.594-2.527 2-3z" opacity=".529" />
  <path fill="#949494" d="M500.5 567.5c1.406.473 2.073 1.473 2 3-1.406-.473-2.073-1.473-2-3z" opacity=".345" />
  <path fill="#8e8e8e" d="M81.5 568.5c.073 1.527-.594 2.527-2 3-.073-1.527.594-2.527 2-3z" opacity=".384" />
  <path fill="#7f7f7f" d="M508.5 580.5c1.762.762 2.762 2.096 3 4-1.762-.762-2.762-2.096-3-4z" opacity=".804" />
  <path fill="#8d8d8d" d="M513.5 586.5c1.406.473 2.073 1.473 2 3-1.406-.473-2.073-1.473-2-3z" opacity=".647" />
  <path fill="#8f8f8f" d="M625.5 621.5c1.527-.073 2.527.594 3 2-1.527.073-2.527-.594-3-2z" opacity=".435" />
  <path fill="#878787" d="M628.5 623.5c1.527-.073 2.527.594 3 2-1.527.073-2.527-.594-3-2z" opacity=".439" />
  <path fill="#8f8f8f" d="M604.5 662.5c1.406.473 2.073 1.473 2 3-1.406-.473-2.073-1.473-2-3z" opacity=".639" />
  <path fill="#828282" d="M610.5 670.5c1.406.473 2.073 1.473 2 3-1.406-.473-2.073-1.473-2-3z" opacity=".486" />
  <path fill="#909090" d="M96.5 695.5c2.249.58 3.915 1.913 5 4-2.249-.58-3.915-1.913-5-4z" opacity=".718" />
  <path fill="#6e6e6e" d="M624.5 698.5c1.424 2.015 2.09 4.348 2 7-1.424-2.015-2.09-4.348-2-7z" opacity=".647" />
  <path fill="#767676" d="M115.5 710.5c1.527-.073 2.527.594 3 2-1.527.073-2.527-.594-3-2z" opacity=".549" />
  <path fill="#818181" d="M121.5 714.5c1.527-.073 2.527.594 3 2-1.527.073-2.527-.594-3-2z" opacity=".467" />
  <path fill="#848484" d="M124.5 716.5c1.527-.073 2.527.594 3 2-1.527.073-2.527-.594-3-2z" opacity=".478" />
  <path fill="#606060" d="M273.5 776.5c2.652-.09 4.985.576 7 2-2.652.09-4.985-.576-7-2z" opacity=".922" />
  <path fill="#616161" d="M280.5 778.5c2.652-.09 4.985.576 7 2-2.652.09-4.985-.576-7-2z" opacity=".906" />
  <path fill="#606060" d="M315.5 788.5c2.652-.09 4.985.576 7 2-2.652.09-4.985-.576-7-2z" opacity=".91" />
  <path fill="#5a5a5a" d="M322.5 790.5c2.652-.09 4.985.576 7 2-2.652.09-4.985-.576-7-2z" opacity=".922" />
  <path fill="#646464" d="M398.5 809.5c2.652-.09 4.985.576 7 2-2.652.09-4.985-.576-7-2z" opacity=".722" />
  <path fill="#6f6f6f" d="M409.5 812.5c2.652-.09 4.985.576 7 2-2.652.09-4.985-.576-7-2z" opacity=".816" />
  <path fill="#787878" d="M420.5 815.5h4c-.067 1.459.266 2.792 1 4-1.548-.321-2.215-1.321-2-3-1.291.237-2.291-.096-3-1z"
    opacity=".537" />
</svg>