<?xml version="1.0" encoding="UTF-8"?>
<svg version="1.1" xmlns="http://www.w3.org/2000/svg" width="300" height="300">
<path d="M0 0 C99 0 198 0 300 0 C300 99 300 198 300 300 C201 300 102 300 0 300 C0 201 0 102 0 0 Z " fill="#010101" transform="translate(0,0)"/>
<path d="M0 0 C1.84664246 -0.00574036 1.84664246 -0.00574036 3.73059082 -0.01159668 C6.32251813 -0.01430764 8.91447318 -0.007004 11.50634766 0.00976562 C15.45667962 0.03118455 19.40519286 0.00993358 23.35546875 -0.015625 C25.88281648 -0.01298158 28.41016309 -0.00785632 30.9375 0 C32.10962036 -0.00809692 33.28174072 -0.01619385 34.48937988 -0.02453613 C42.88688129 0.07072747 49.09928611 1.52166698 55.78125 6.71875 C62.09068604 14.83088205 62.5456459 22.50342423 62.47045898 32.55297852 C62.47424873 33.95018049 62.47975415 35.34737869 62.48683167 36.74456787 C62.50071707 40.51527485 62.48966632 44.28552199 62.47312045 48.05620313 C62.45920125 52.0149244 62.46573771 55.97362083 62.46925354 59.93235779 C62.47194995 66.57729443 62.45852821 73.22204985 62.43530273 79.86694336 C62.40868557 87.53499732 62.40695148 95.20274864 62.4186911 102.87083298 C62.429492 110.26747839 62.42326442 117.66401499 62.40913582 125.06065178 C62.40339713 128.19962086 62.40344192 131.33850975 62.40820122 134.47747993 C62.4129942 138.17699129 62.40277408 141.87617369 62.38124657 145.57562256 C62.37308191 147.57069836 62.37950484 149.56581739 62.38644409 151.56089783 C62.3194039 159.69140447 61.78112626 166.92201786 56.21875 173.34375 C55.77015625 173.88644531 55.3215625 174.42914063 54.859375 174.98828125 C48.12394694 180.48516985 40.74804685 179.98433325 32.44140625 179.96484375 C30.48707924 179.97270653 30.48707924 179.97270653 28.49327087 179.98072815 C25.74386868 179.98962876 22.99475742 179.98727147 20.24536133 179.97729492 C16.74059452 179.96580988 13.23683603 179.98602339 9.73220158 180.01521206 C6.36438502 180.03808338 2.99679838 180.03110269 -0.37109375 180.02734375 C-1.62027084 180.03857773 -2.86944794 180.04981171 -4.15647888 180.06138611 C-12.8057866 179.99251048 -18.46171327 179.0214637 -24.84375 172.78125 C-30.37612837 164.56171642 -30.46474482 157.29180777 -30.41943359 147.62304688 C-30.42350467 146.22599376 -30.42884955 144.82894388 -30.43536377 143.43190002 C-30.44897961 139.65708249 -30.44376262 135.88251238 -30.43422651 132.10769081 C-30.42660005 128.14629097 -30.43368379 124.18491147 -30.43838501 120.22351074 C-30.4438339 113.57263407 -30.43667378 106.92185754 -30.42236328 100.27099609 C-30.4060384 92.59558763 -30.41132752 84.92041829 -30.4278425 77.24501562 C-30.44148214 70.6400923 -30.44336494 64.03524072 -30.43552649 57.43030787 C-30.43086356 53.49202718 -30.43018693 49.55385868 -30.44013596 45.61558533 C-30.44883955 41.91200068 -30.44272234 38.20872257 -30.42545319 34.50517082 C-30.41963243 32.50768829 -30.42847485 30.51017965 -30.43783569 28.51271057 C-30.37912873 20.16650182 -29.54408791 14.37441387 -24.90625 7.28125 C-17.63768764 0.32871209 -9.68109869 -0.06687634 0 0 Z " fill="#FDFDFD" transform="translate(193.03125,17.46875)"/>
<path d="M0 0 C1.22088821 0.00015106 2.44177643 0.00030212 3.69966125 0.00045776 C5.66240242 0.01594162 5.66240242 0.01594162 7.66479492 0.03173828 C9.02528169 0.03547156 10.38577117 0.03831705 11.7462616 0.04031372 C15.31537385 0.0479254 18.88432159 0.06755244 22.45336914 0.08972168 C26.09999364 0.11023343 29.7466449 0.1193268 33.39331055 0.12939453 C40.53986195 0.15080087 47.68630203 0.18490681 54.83276367 0.22705078 C55.65179912 4.20490064 56.46178961 8.1845421 57.27026367 12.16455078 C57.50036133 13.28152344 57.73045898 14.39849609 57.9675293 15.54931641 C58.30107422 17.19770508 58.30107422 17.19770508 58.64135742 18.87939453 C58.94771118 20.37974243 58.94771118 20.37974243 59.26025391 21.91040039 C59.96428188 25.98895903 60.37570126 30.11348907 60.83276367 34.22705078 C45.65276367 34.55705078 30.47276367 34.88705078 14.83276367 35.22705078 C14.50276367 45.78705078 14.17276367 56.34705078 13.83276367 67.22705078 C18.15047852 67.17484375 18.15047852 67.17484375 22.55541992 67.12158203 C25.35871388 67.09815228 28.16199672 67.07995517 30.96533203 67.06225586 C32.90613731 67.04721587 34.84690888 67.02677864 36.78759766 67.00073242 C39.58529 66.96413783 42.382531 66.9472763 45.18041992 66.93408203 C46.04111588 66.91859818 46.90181183 66.90311432 47.78858948 66.88716125 C54.60439018 66.88527856 59.25822125 68.11020479 64.64526367 72.53955078 C68.7101402 77.53354194 69.12979653 82.6592275 69.10742188 88.90966797 C69.11253281 89.6552597 69.11764374 90.40085144 69.12290955 91.16903687 C69.13674749 93.62074944 69.13585263 96.07217892 69.13354492 98.52392578 C69.13743613 100.24017439 69.14177167 101.95642204 69.14653015 103.67266846 C69.15398072 107.26699954 69.15371033 110.86123238 69.1484375 114.45556641 C69.14265615 119.03946806 69.1595471 123.6229639 69.18278217 128.20679855 C69.19758876 131.75179355 69.19838164 135.2966925 69.19527245 138.84171295 C69.19578257 140.53043672 69.20096174 142.2191663 69.21108437 143.9078598 C69.26501361 154.16575003 69.27645431 163.59192065 63.77026367 172.60205078 C56.26108366 179.31238185 47.60962034 179.82679787 37.92260742 179.75830078 C36.11138145 179.76404114 36.11138145 179.76404114 34.26356506 179.76989746 C31.72469239 179.77260562 29.18579128 179.7653218 26.64697266 179.74853516 C22.77792791 179.72709326 18.91073606 179.74838629 15.04174805 179.77392578 C12.56453044 179.77128268 10.08731398 179.76615807 7.61010742 179.75830078 C6.46299789 179.76639771 5.31588837 179.77449463 4.13401794 179.78283691 C-4.27519334 179.68540242 -10.7806335 178.39278821 -17.04223633 172.53955078 C-22.42753603 164.1448189 -22.60138714 155.98684817 -22.55541992 146.20532227 C-22.55949225 144.80812166 -22.56483782 143.41092428 -22.5713501 142.01373291 C-22.58494979 138.24310646 -22.57975605 134.47272808 -22.57021284 130.70209765 C-22.56257943 126.74337299 -22.56967189 122.78466855 -22.57437134 118.82594299 C-22.57981758 112.18104263 -22.57266641 105.53624254 -22.55834961 98.89135742 C-22.54201851 91.22331253 -22.54731943 83.55550692 -22.56382883 75.8874678 C-22.57746801 69.28677056 -22.5793517 62.6861451 -22.57151282 56.08543831 C-22.5668505 52.15052595 -22.5661717 48.21572587 -22.57612228 44.28082085 C-22.58482546 40.58132669 -22.57870945 36.88213943 -22.56143951 33.18267822 C-22.55561891 31.18759069 -22.56446105 29.19247702 -22.57382202 27.19740295 C-22.52060296 19.64048681 -22.33977653 13.03675387 -17.30004883 6.98486328 C-16.6374707 6.44603516 -15.97489258 5.90720703 -15.29223633 5.35205078 C-14.63481445 4.79775391 -13.97739258 4.24345703 -13.30004883 3.67236328 C-8.9346483 0.71412483 -5.23526115 -0.0216781 0 0 Z " fill="#FDFDFD" transform="translate(66.167236328125,17.77294921875)"/>
<path d="M0 0 C1.7644043 -0.04930664 1.7644043 -0.04930664 3.56445312 -0.09960938 C4.70462891 -0.10669922 5.84480469 -0.11378906 7.01953125 -0.12109375 C8.05827393 -0.13454834 9.0970166 -0.14800293 10.16723633 -0.16186523 C13.32491733 0.46477019 15.63146735 1.28578028 18.02198792 3.50279236 C20.77503774 8.07275487 19.96485676 13.93904854 19.87890625 19.09375 C19.87532607 20.4422567 19.87397238 21.79077099 19.8747406 23.13928223 C19.87005747 25.96068413 19.84528578 28.78093778 19.80493164 31.60205078 C19.75396023 35.21023674 19.74248918 38.81716296 19.74476719 42.42566681 C19.74394962 45.20880054 19.72746715 47.99166131 19.70576286 50.77470398 C19.69163423 52.74938647 19.68638909 54.72412609 19.68128967 56.69885254 C19.65258034 58.50597717 19.65258034 58.50597717 19.62329102 60.34960938 C19.61185562 61.40708374 19.60042023 62.46455811 19.58863831 63.55407715 C19.12939268 66.85518128 18.14623348 68.762529 16.1875 71.4375 C11.61991635 73.72129183 5.32708876 72.71272605 0.3125 72.75 C-1.62689453 72.79350586 -1.62689453 72.79350586 -3.60546875 72.83789062 C-5.46751953 72.85045898 -5.46751953 72.85045898 -7.3671875 72.86328125 C-8.50655762 72.87786377 -9.64592773 72.89244629 -10.81982422 72.9074707 C-14.46693198 72.33472781 -15.59127963 71.32953023 -17.8125 68.4375 C-18.85126206 65.32121382 -18.95149907 63.12160923 -18.97363281 59.85205078 C-18.98804413 58.13479294 -18.98804413 58.13479294 -19.00274658 56.38284302 C-19.00699646 55.14533295 -19.01124634 53.90782288 -19.015625 52.6328125 C-19.02417511 50.72591141 -19.02417511 50.72591141 -19.03289795 48.78048706 C-19.04235134 46.08881042 -19.04924656 43.39724537 -19.05273438 40.70556641 C-19.05821719 37.26337201 -19.08224499 33.82157355 -19.11070633 30.37950325 C-19.13385463 27.08896977 -19.1357837 23.79841601 -19.140625 20.5078125 C-19.1591452 18.65762009 -19.1591452 18.65762009 -19.17803955 16.77005005 C-19.17503845 15.61890717 -19.17203735 14.46776428 -19.16894531 13.28173828 C-19.17259094 12.27152618 -19.17623657 11.26131409 -19.17999268 10.2204895 C-18.74620662 6.9354661 -17.76937722 5.09301602 -15.8125 2.4375 C-10.97439004 -0.78790664 -5.68859634 0.02777936 0 0 Z " fill="#FAFAFA" transform="translate(154.8125,207.5625)"/>
<path d="M0 0 C1.134375 0.00257813 2.26875 0.00515625 3.4375 0.0078125 C5.2009375 0.05035156 5.2009375 0.05035156 7 0.09375 C8.175625 0.09117187 9.35125 0.08859375 10.5625 0.0859375 C20.34361931 0.19708658 20.34361931 0.19708658 25 3.59375 C26.34718218 6.28811435 26.15701043 8.41603073 26.19287109 11.43286133 C26.20893402 12.65785843 26.22499695 13.88285553 26.24154663 15.14497375 C26.25303371 16.4885692 26.26364232 17.8321724 26.2734375 19.17578125 C26.27876118 19.85172522 26.28408485 20.52766918 26.28956985 21.2240963 C26.31629445 24.80246217 26.33567074 28.38079325 26.35009766 31.95922852 C26.36343479 34.91885299 26.39128183 37.8777876 26.43212891 40.8371582 C26.4814732 44.41219077 26.50622055 47.98659783 26.51332474 51.56195641 C26.5200332 52.92273472 26.5352452 54.2834993 26.55921555 55.64408302 C26.73864527 66.44574621 26.73864527 66.44574621 23.85595703 70.92602539 C20.55355595 72.85444921 18.5924522 73.23778366 14.78125 73.2578125 C13.60175781 73.26425781 12.42226562 73.27070313 11.20703125 73.27734375 C9.98371094 73.25800781 8.76039062 73.23867188 7.5 73.21875 C6.27667969 73.23808594 5.05335937 73.25742187 3.79296875 73.27734375 C2.61347656 73.27089844 1.43398437 73.26445312 0.21875 73.2578125 C-0.85439453 73.25217285 -1.92753906 73.2465332 -3.03320312 73.24072266 C-7.35161745 72.2990013 -8.57119607 71.34575353 -11 67.59375 C-11.74999596 62.97081174 -11.7000515 58.39352405 -11.6640625 53.71875 C-11.66743364 52.34781464 -11.67228875 50.9768822 -11.67855835 49.60595703 C-11.68591594 46.73766526 -11.6752621 43.87015391 -11.65185547 41.00195312 C-11.62336599 37.33291507 -11.63977628 33.66570564 -11.66971779 29.99673462 C-11.68782233 27.16725998 -11.68201881 24.33821594 -11.66907883 21.50872803 C-11.66414122 19.50076097 -11.67927464 17.4927769 -11.69473267 15.48486328 C-11.57890059 6.48356339 -11.57890059 6.48356339 -8.83349609 2.26367188 C-5.58980598 0.35200202 -3.74789155 -0.02576675 0 0 Z " fill="#FBFBFB" transform="translate(99,207.40625)"/>
<path d="M0 0 C0.804375 -0.00128906 1.60875 -0.00257812 2.4375 -0.00390625 C3.283125 -0.00003906 4.12875 0.00382812 5 0.0078125 C6.2684375 0.00201172 6.2684375 0.00201172 7.5625 -0.00390625 C8.366875 -0.00261719 9.17125 -0.00132813 10 0 C10.7425 0.00112793 11.485 0.00225586 12.25 0.00341797 C14 0.1328125 14 0.1328125 15 1.1328125 C15.09997278 2.595649 15.13075151 4.06328007 15.13371277 5.52952576 C15.13797775 6.47880951 15.14224274 7.42809326 15.14663696 8.40614319 C15.14618378 9.45603928 15.14573059 10.50593536 15.14526367 11.58764648 C15.14862228 12.6867334 15.1519809 13.78582031 15.15544128 14.91821289 C15.16498401 18.57178866 15.16689604 22.22531877 15.16796875 25.87890625 C15.17117895 28.4061739 15.17454283 30.93344137 15.17805481 33.46070862 C15.18405435 38.76620998 15.18593652 44.07169417 15.18530273 49.37719727 C15.18470179 55.51599339 15.1952552 61.65470168 15.2110464 67.79347557 C15.22567799 73.69079617 15.22929135 79.58808982 15.22869301 85.48542976 C15.22987721 87.99854961 15.23432343 90.51167004 15.24202538 93.02477837 C15.2517696 96.53278873 15.24896933 100.04057032 15.24291992 103.54858398 C15.24853943 104.59645584 15.25415894 105.6443277 15.25994873 106.72395325 C15.25575424 107.67605682 15.25155975 108.6281604 15.24723816 109.6091156 C15.24778293 110.43927405 15.24832769 111.26943251 15.24888897 112.12474728 C15 114.1328125 15 114.1328125 13 116.1328125 C10.10867823 116.30460302 7.32557935 116.3651072 4.4375 116.3203125 C3.64408203 116.31966797 2.85066406 116.31902344 2.03320312 116.31835938 C-3.85974478 116.27306772 -3.85974478 116.27306772 -5 115.1328125 C-5.09784774 113.65497449 -5.12631765 112.17247982 -5.12698364 110.69140625 C-5.12980347 109.73226318 -5.13262329 108.77312012 -5.13552856 107.78491211 C-5.13350433 106.72409424 -5.1314801 105.66327637 -5.12939453 104.5703125 C-5.13114685 103.45986572 -5.13289917 102.34941895 -5.13470459 101.20532227 C-5.13912572 97.51447004 -5.13618419 93.82366526 -5.1328125 90.1328125 C-5.13348546 87.58072907 -5.13445542 85.02864571 -5.13571167 82.4765625 C-5.137189 77.11978488 -5.13512756 71.76302445 -5.13037109 66.40625 C-5.12492851 60.20497535 -5.12669118 54.00373357 -5.1321975 47.80245972 C-5.13727437 41.84747035 -5.13674707 35.89249123 -5.13381577 29.9375 C-5.13314624 27.39843745 -5.13397582 24.85937408 -5.13629532 22.3203125 C-5.1388203 18.77862286 -5.13498342 15.23699733 -5.12939453 11.6953125 C-5.13141876 10.63449463 -5.13344299 9.57367676 -5.13552856 8.48071289 C-5.13270874 7.52156982 -5.12988892 6.56242676 -5.12698364 5.57421875 C-5.12660662 4.73576416 -5.12622959 3.89730957 -5.12584114 3.03344727 C-4.89148028 -0.50620917 -3.09183671 0.0046968 0 0 Z " fill="#020202" transform="translate(204,49.8671875)"/>
<path d="M0 0 C1.11181641 0.01611328 2.22363281 0.03222656 3.36914062 0.04882812 C4.51962891 0.09072266 5.67011719 0.13261719 6.85546875 0.17578125 C8.02529297 0.19833984 9.19511719 0.22089844 10.40039062 0.24414062 C13.28179923 0.30294488 16.16254817 0.39262153 19.04296875 0.48828125 C19.70296875 5.10828125 20.36296875 9.72828125 21.04296875 14.48828125 C15.10296875 14.48828125 9.16296875 14.48828125 3.04296875 14.48828125 C3.04296875 19.76828125 3.04296875 25.04828125 3.04296875 30.48828125 C5.27046875 30.40578125 7.49796875 30.32328125 9.79296875 30.23828125 C16.35821109 29.99512413 16.35821109 29.99512413 19.2277832 32.06176758 C21.70614288 35.37480279 21.54497797 37.59186996 21.5390625 41.703125 C21.54051773 42.39588028 21.54197296 43.08863556 21.54347229 43.80238342 C21.54181625 45.26405044 21.53028766 46.72573542 21.50952148 48.18725586 C21.48060464 50.41531112 21.48890855 52.64097894 21.50195312 54.86914062 C21.44877107 67.00531914 21.44877107 67.00531914 18.04296875 71.48828125 C15.43345639 72.79303743 13.5159559 72.60129697 10.59765625 72.5859375 C8.98310547 72.58110352 8.98310547 72.58110352 7.3359375 72.57617188 C6.20800781 72.56779297 5.08007812 72.55941406 3.91796875 72.55078125 C2.78230469 72.54626953 1.64664063 72.54175781 0.4765625 72.53710938 C-2.33468763 72.5252974 -5.14583355 72.50882632 -7.95703125 72.48828125 C-8.29575638 71.07289408 -8.62777749 69.65590162 -8.95703125 68.23828125 C-9.14265625 67.449375 -9.32828125 66.66046875 -9.51953125 65.84765625 C-9.95703125 63.48828125 -9.95703125 63.48828125 -9.95703125 59.48828125 C-4.34703125 59.48828125 1.26296875 59.48828125 7.04296875 59.48828125 C6.71296875 54.20828125 6.38296875 48.92828125 6.04296875 43.48828125 C2.67078125 43.33359375 2.67078125 43.33359375 -0.76953125 43.17578125 C-7.34521461 42.8741444 -7.34521461 42.8741444 -9.63745117 41.4284668 C-11.65602707 38.46054402 -11.42480033 35.40374007 -11.42578125 31.93359375 C-11.43339478 31.19503143 -11.4410083 30.45646912 -11.44885254 29.69552612 C-11.45965104 28.13380307 -11.46250762 26.57200781 -11.45800781 25.01025391 C-11.45703724 22.6279957 -11.49861509 20.24897897 -11.54296875 17.8671875 C-11.54817747 16.34766295 -11.55086392 14.82812723 -11.55078125 13.30859375 C-11.56717651 12.60010284 -11.58357178 11.89161194 -11.60046387 11.16165161 C-11.54830471 7.40252326 -11.03108004 5.58947096 -8.79223633 2.5300293 C-5.5054281 0.1630632 -4.00166555 -0.10260681 0 0 Z " fill="#FAFAFA" transform="translate(233.95703125,207.51171875)"/>
<path d="M0 0 C1.12591553 0.00523682 2.25183105 0.01047363 3.41186523 0.01586914 C4.62680664 0.0190918 5.84174805 0.02231445 7.09350586 0.02563477 C8.37290039 0.03401367 9.65229492 0.04239258 10.97045898 0.05102539 C12.2537207 0.05553711 13.53698242 0.06004883 14.85913086 0.06469727 C18.04211921 0.07652994 21.22501661 0.09301471 24.40795898 0.11352539 C24.91308143 1.71608647 25.41187525 3.32064331 25.90795898 4.92602539 C26.18639648 5.8193457 26.46483398 6.71266602 26.75170898 7.63305664 C27.40795898 10.11352539 27.40795898 10.11352539 27.40795898 13.11352539 C24.43795898 13.11352539 21.46795898 13.11352539 18.40795898 13.11352539 C18.40795898 32.91352539 18.40795898 52.71352539 18.40795898 73.11352539 C13.45795898 73.11352539 8.50795898 73.11352539 3.40795898 73.11352539 C3.40795898 53.31352539 3.40795898 33.51352539 3.40795898 13.11352539 C0.10795898 13.11352539 -3.19204102 13.11352539 -6.59204102 13.11352539 C-6.11715204 11.13332796 -5.63701243 9.15438904 -5.15454102 7.17602539 C-4.88770508 6.07387695 -4.62086914 4.97172852 -4.34594727 3.83618164 C-3.32401714 0.14558425 -3.32401714 0.14558425 0 0 Z " fill="#F8F8F8" transform="translate(50.592041015625,207.886474609375)"/>
<path d="M0 0 C4.95 0 9.9 0 15 0 C15 19.47 15 38.94 15 59 C19.95 59 24.9 59 30 59 C29.34 63.62 28.68 68.24 28 73 C18.76 73 9.52 73 0 73 C0 48.91 0 24.82 0 0 Z " fill="#F8F8F8" transform="translate(185,208)"/>
<path d="M0 0 C3.14581423 -0.02888514 6.29159469 -0.04675923 9.4375 -0.0625 C10.33533203 -0.07087891 11.23316406 -0.07925781 12.15820312 -0.08789062 C13.01220703 -0.09111328 13.86621094 -0.09433594 14.74609375 -0.09765625 C15.93223267 -0.10551147 15.93223267 -0.10551147 17.14233398 -0.11352539 C19 0 19 0 20 1 C20.09868509 2.65191396 20.12798837 4.30803217 20.12939453 5.96289062 C20.13254669 7.02068726 20.13569885 8.07848389 20.13894653 9.16833496 C20.1369223 10.31934692 20.13489807 11.47035889 20.1328125 12.65625 C20.13424759 14.41515564 20.13424759 14.41515564 20.13571167 16.20959473 C20.1363937 18.69458062 20.13453784 21.17956829 20.13037109 23.66455078 C20.12502319 27.48343887 20.13031536 31.30220935 20.13671875 35.12109375 C20.13605797 37.52864609 20.13477682 39.93619837 20.1328125 42.34375 C20.13483673 43.49476196 20.13686096 44.64577393 20.13894653 45.83166504 C20.13579437 46.88946167 20.13264221 47.9472583 20.12939453 49.03710938 C20.12859894 49.97341187 20.12780334 50.90971436 20.12698364 51.87438965 C20 54 20 54 19 55 C17.66956375 55.0983721 16.33406656 55.13078592 15 55.1328125 C14.195625 55.13410156 13.39125 55.13539063 12.5625 55.13671875 C11.716875 55.13285156 10.87125 55.12898438 10 55.125 C9.154375 55.12886719 8.30875 55.13273437 7.4375 55.13671875 C6.633125 55.13542969 5.82875 55.13414062 5 55.1328125 C4.2575 55.13168457 3.515 55.13055664 2.75 55.12939453 C1 55 1 55 0 54 C-0.09353163 52.31198015 -0.11744791 50.62004793 -0.11352539 48.92944336 C-0.11344986 47.84839828 -0.11337433 46.76735321 -0.11329651 45.65354919 C-0.10813522 44.4775264 -0.10297394 43.3015036 -0.09765625 42.08984375 C-0.0962413 40.89267227 -0.09482635 39.69550079 -0.09336853 38.46205139 C-0.08774979 34.62050934 -0.07519411 30.77902457 -0.0625 26.9375 C-0.05748741 24.34049563 -0.05292409 21.74349035 -0.04882812 19.14648438 C-0.03777427 12.76430321 -0.02101792 6.3821557 0 0 Z " fill="#050505" transform="translate(80,111)"/>
<path d="M0 0 C2.64 0 5.28 0 8 0 C8 15.51 8 31.02 8 47 C5.36 47 2.72 47 0 47 C0 31.49 0 15.98 0 0 Z " fill="#010101" transform="translate(151,221)"/>
<path d="M0 0 C2.64 0 5.28 0 8 0 C8 15.51 8 31.02 8 47 C5.69 47 3.38 47 1 47 C0 46 0 46 -0.12025452 44.13340759 C-0.11803391 43.31844315 -0.11581329 42.5034787 -0.11352539 41.66381836 C-0.11344986 40.7429393 -0.11337433 39.82206024 -0.11329651 38.87327576 C-0.10813522 37.87224319 -0.10297394 36.87121063 -0.09765625 35.83984375 C-0.0962413 34.82024063 -0.09482635 33.80063751 -0.09336853 32.75013733 C-0.08775097 29.47922893 -0.0751955 26.20838787 -0.0625 22.9375 C-0.05748726 20.72591244 -0.05292396 18.51432382 -0.04882812 16.30273438 C-0.03777584 10.86846643 -0.02102063 5.43423803 0 0 Z " fill="#030303" transform="translate(102,221)"/>
</svg>
