<?xml version="1.0" encoding="UTF-8"?>
<!DOCTYPE svg PUBLIC "-//W3C//DTD SVG 1.1//EN" "http://www.w3.org/Graphics/SVG/1.1/DTD/svg11.dtd">
<svg xmlns="http://www.w3.org/2000/svg" version="1.1" width="400px" height="400px" style="shape-rendering:geometricPrecision; text-rendering:geometricPrecision; image-rendering:optimizeQuality; fill-rule:evenodd; clip-rule:evenodd" xmlns:xlink="http://www.w3.org/1999/xlink">
<g><path style="opacity:0.99" fill="#010100" d="M 57.5,80.5 C 69.1578,54.0035 87.1578,32.8369 111.5,17C 135.82,4.5557 160.82,3.22237 186.5,13C 199.128,18.9717 211.462,25.305 223.5,32C 250.742,36.064 278.076,39.3973 305.5,42C 321.742,47.8955 335.576,57.3955 347,70.5C 375.455,105.41 385.122,145.077 376,189.5C 374.712,196.279 373.045,202.945 371,209.5C 368.787,237.965 365.453,266.298 361,294.5C 359.879,308.554 355.045,321.054 346.5,332C 334.233,342.986 319.9,346.986 303.5,344C 292.721,343.194 283.554,339.027 276,331.5C 272.647,326.742 272.814,322.076 276.5,317.5C 282.315,313.354 285.981,307.854 287.5,301C 284.928,290.69 280.094,281.524 273,273.5C 267.469,267.634 261.635,262.134 255.5,257C 276.087,257.622 292.587,249.789 305,233.5C 313.799,220.442 319.466,206.109 322,190.5C 325.049,163.054 324.216,135.721 319.5,108.5C 320.325,107.614 321.325,107.281 322.5,107.5C 326.17,126.517 330.003,145.517 334,164.5C 343.104,174.54 354.437,180.207 368,181.5C 369.764,181.456 371.431,181.122 373,180.5C 375.69,155.846 373.023,131.846 365,108.5C 362.423,102.34 359.09,96.6729 355,91.5C 346.785,81.6251 338.285,72.1251 329.5,63C 324.862,58.3457 319.529,54.679 313.5,52C 286.049,46.3067 258.383,42.64 230.5,41C 236.323,46.1623 241.49,51.9956 246,58.5C 264.189,89.4109 273.023,122.911 272.5,159C 271.525,179.302 269.358,199.468 266,219.5C 260.952,234.649 256.285,249.982 252,265.5C 247.987,299.927 243.32,334.26 238,368.5C 237.024,377.303 232.524,383.469 224.5,387C 218.608,388.645 212.608,389.645 206.5,390C 194.5,390.667 182.5,390.667 170.5,390C 162.109,388.061 159.276,382.895 162,374.5C 166.414,369.344 170.081,363.677 173,357.5C 175.107,353.072 176.274,348.405 176.5,343.5C 173.176,326.535 170.009,309.535 167,292.5C 165.748,280.199 165.248,267.866 165.5,255.5C 161.516,255.531 157.683,254.864 154,253.5C 152.669,264.803 151.669,276.136 151,287.5C 144.898,316.186 141.231,345.186 140,374.5C 139.22,381.228 136.053,386.395 130.5,390C 111.865,392.72 93.1985,393.053 74.5,391C 68.3737,388.868 65.3737,384.534 65.5,378C 65.5229,375.075 66.0229,372.241 67,369.5C 71.8344,364.683 75.8344,359.35 79,353.5C 80.601,337.878 79.2676,322.545 75,307.5C 72.3943,302.565 69.3943,297.898 66,293.5C 59,276.5 52,259.5 45,242.5C 17.8945,215.374 13.2278,184.707 31,150.5C 33.8333,146.167 36.6667,141.833 39.5,137.5C 30.6839,126.236 27.5172,113.569 30,99.5C 32.6345,93.5361 37.1345,89.7027 43.5,88C 60.8294,87.353 70.8294,95.6863 73.5,113C 73.704,117.259 72.0374,120.592 68.5,123C 63.5,124.771 58.8334,127.104 54.5,130C 52.3724,134.793 49.2057,138.627 45,141.5C 43.0574,139.285 41.3907,139.285 40,141.5C 34.9337,154.098 31.2671,167.098 29,180.5C 26.4449,205.194 34.9449,225.027 54.5,240C 57.7949,242.231 61.2949,244.064 65,245.5C 68.5946,256.21 74.7613,265.043 83.5,272C 88.5054,274.668 93.8387,276.168 99.5,276.5C 98.5155,273.188 97.5155,269.855 96.5,266.5C 89.8704,264.52 84.2037,261.02 79.5,256C 86.8333,255.667 94.1667,255.333 101.5,255C 106.292,254.783 110.958,253.95 115.5,252.5C 116.347,254.061 116.014,255.561 114.5,257C 110.173,260.499 105.506,263.499 100.5,266C 101.547,268.979 102.881,271.812 104.5,274.5C 120.978,275.699 130.311,268.033 132.5,251.5C 152.577,251.044 168.077,242.378 179,225.5C 198.001,194.359 198.001,163.026 179,131.5C 175.869,127.367 172.369,123.534 168.5,120C 169.908,119.685 171.241,120.018 172.5,121C 183.411,127.246 191.578,136.08 197,147.5C 197.688,140.6 196.688,133.933 194,127.5C 193.333,123.5 193.333,119.5 194,115.5C 197.64,111.86 201.306,108.194 205,104.5C 211.217,93.3083 213.217,81.3083 211,68.5C 208.578,58.3239 205.578,48.3239 202,38.5C 178.623,16.869 151.456,10.7023 120.5,20C 106.628,25.4345 94.628,33.6012 84.5,44.5C 74.7062,55.9528 65.7062,67.9528 57.5,80.5 Z"/></g>
<g><path style="opacity:0.839" fill="#040404" d="M 57.5,80.5 C 57.6716,81.4916 57.3382,82.1583 56.5,82.5C 56.3284,81.5084 56.6618,80.8417 57.5,80.5 Z"/></g>
<g><path style="opacity:0.784" fill="#040504" d="M 56.5,82.5 C 55.8333,83.1667 55.8333,83.1667 56.5,82.5 Z"/></g>
<g><path style="opacity:0.982" fill="#010101" d="M 141.5,89.5 C 156.703,87.9119 166.037,94.4119 169.5,109C 168.117,116.546 163.784,121.38 156.5,123.5C 154.962,123.327 153.462,122.994 152,122.5C 146.216,125.309 140.383,127.976 134.5,130.5C 116.407,123.437 113.74,112.603 126.5,98C 130.989,94.0937 135.989,91.2604 141.5,89.5 Z"/></g>
<g><path style="opacity:0.985" fill="#010101" d="M 118.5,180.5 C 123.531,180.18 128.197,181.347 132.5,184C 139.042,188.875 144.542,194.708 149,201.5C 149.701,204.928 149.368,208.262 148,211.5C 145.5,215.167 143,218.833 140.5,222.5C 137.725,226.077 134.391,226.911 130.5,225C 125,218.167 118.833,212 112,206.5C 104.321,195.102 106.488,186.436 118.5,180.5 Z"/></g>
<g><path style="opacity:0.981" fill="#010101" d="M 59.5,183.5 C 66.7253,184.528 71.892,188.528 75,195.5C 75.6667,198.833 75.6667,202.167 75,205.5C 71.137,212.119 67.4703,218.786 64,225.5C 55.8048,222.164 50.3048,216.33 47.5,208C 51.8899,200.053 55.8899,191.886 59.5,183.5 Z"/></g>
</svg>
