<svg version="1.0" xmlns="http://www.w3.org/2000/svg" width="933.333" height="376" viewBox="0 0 700 282"><path d="M0 141v141h700V0H0v141zm610-50.9v22l4.8-.8c2.6-.4 9-.7 14.2-.7 7.7.1 10.5.6 15 2.6 10.5 4.7 15.7 11.1 18.4 22.8 1.2 5.1 1.6 13.3 1.6 37.8v31.3l-12.7-.3-12.8-.3-.5-30c-.7-36.1-1.1-37.8-9.6-41.1-4.5-1.7-10.3-1.5-15.7.5L610 135v70h-25l.2-66.7.3-66.8 10.5-1.6c5.8-.9 11.3-1.7 12.3-1.8 1.6-.1 1.7 1.6 1.7 22zm-405-9.7c13.9 3.1 19 5.5 19 9.1 0 1.4-.4 3.3-1 4.3-.5.9-1.9 4.5-3.1 8-2.4 6.7-3.3 7.9-5.2 6.4-3.4-2.8-14.5-5.4-23.2-5.4-14.2-.1-18.5 2.4-18.5 10.7 0 7.5 3.6 10.5 19.2 16.1 20.1 7.2 30.4 14.3 35.3 24 2.7 5.4 2.9 6.8 2.9 16.4.1 8.9-.3 11.3-2.3 15.7-2.8 6.2-10.3 13.6-16.8 16.5-13.6 6-38.5 6.4-56.8 1-5.5-1.7-11.5-5.2-11.5-6.8 0-3.2 6.4-19.4 7.7-19.4.7 0 3.6.9 6.5 2.1 5.9 2.3 19.2 4.9 25.3 4.9 2.2 0 6.5-.7 9.5-1.5 12.2-3.2 14.7-14.5 4.8-21.8-3.4-2.4-12-6.7-13.7-6.7-.5 0-4.9-1.7-9.8-3.7-21.3-8.8-28.7-17.9-28.6-35.2 0-7.5.5-9.5 2.9-14.4 4.8-9.9 13.8-16.8 26.3-20.2 6.4-1.7 23.3-1.8 31.1-.1zm-80.2 12c.2 8.1-.1 11.2-1 11.8-.7.4-13.1.8-27.6.8H69.9l.3 11.7.3 11.8 24 .5 24 .5.3 10.6c.3 10.4.2 10.7-2 11.3-1.3.3-12.3.6-24.6.6H69.9l.3 14.7.3 14.8 29 .5 29 .5v22l-42.7.3-42.8.2v-61.3c0-33.8.3-61.7.7-62 .4-.4 18.7-.6 40.7-.5l40.1.3.3 10.9zm161-7.7c1 1.6 2.9 5 4.2 7.8 4.1 8.9 10.1 21.9 11.5 25 .8 1.6 4.6 10.4 8.4 19.5 3.9 9.1 7.4 16.4 7.8 16.4 1-.2 1.5-1.1 7.8-16.4 1.5-3.6 3.8-8.9 5.1-11.8 1.3-2.9 2.4-5.5 2.4-5.7 0-.8 8.2-18.4 13-28l4.6-9 11.9-.3c6.5-.1 12.2.1 12.6.5 1.9 1.9 5.1 34.2 7.9 77.8 1.9 31.5 2.5 42.6 2.2 43.5-.2.6-5.7 1-13.3 1-11.8 0-12.9-.2-12.9-1.8 0-1-.8-17.1-1.7-35.8-.9-18.6-1.7-35.8-1.7-38.2 0-3.3-.4-4.2-1.6-4-.8.2-1.6 1.2-1.8 2.3-.3 2-.6 2.7-3.5 9.5-.8 1.9-3.2 7.5-5.2 12.5-2.1 4.9-4.8 11.4-6.1 14.3-1.3 2.9-2.4 5.5-2.4 5.7 0 .2-1.3 3.4-3 7-1.6 3.6-3 6.9-3 7.4s-.9 2-2.1 3.5c-1.9 2.4-2.6 2.6-9.9 2.6-7.3 0-8-.2-9.9-2.6-1.2-1.5-2.1-3-2.1-3.5s-1.3-3.8-3-7.4c-1.6-3.6-3-6.7-3-7 0-.3-14-33.8-16-38-.5-1.1-1-2.8-1.2-3.8-.2-1-.7-1.8-1.3-1.8-1.4 0-2.2 8.4-3.4 34.6-.6 12.6-1.3 27.8-1.7 33.7l-.6 10.8h-26l.7-17.3c.4-9.4 1.1-20.8 1.6-25.2.5-4.4.9-10.9.9-14.5 0-3.6.4-11 1-16.5l2-22c1.1-11.4 2.7-23.5 3.5-26.3.3-.9 3.8-1.2 12.9-1.2h12.5l1.9 2.7zm245.4 12.5l.3 13.3 15.5.5 15.5.5v21l-15.7.3-15.8.3v18.7c0 20.1.7 24.5 4.5 29.1 3.7 4.3 12.9 5 25.4 1.9 1.5-.3 3.4 5.6 4.6 14.2.6 4.3.4 5-1.5 6-6.9 3.7-25.6 5.3-34.5 2.9-10.7-2.8-17.7-8.8-21.7-18.8-2.2-5.5-2.2-6.8-2.6-52.3l-.4-46.6 5.4-1.1c8.3-1.6 16.1-2.9 18.5-3 2.2-.1 2.2.2 2.5 13.1zM456 110.4c7.7 1.8 13 4.8 17.3 9.5 7.9 8.7 8.9 15 8.5 52.5l-.3 29.9-5.5 1.2c-16.4 3.8-39.2 4.7-50 2.1-11-2.6-19.2-9-22.1-17.2-2.2-6.2-1.7-19.1.8-23.9 6.6-12.3 18.7-17.2 40.8-16.3l11.5.4v-2.7c0-7.6-5.4-13.2-14-14.5-4.1-.7-19.5.6-26.1 2.2-2.6.6-2.7.4-3.7-5.8-2.5-14.7-2.6-13.7.5-14.9 8.9-3.5 32.5-4.9 42.3-2.5z"/><path d="M437.5 166.1c-6.9 1.7-10.1 6.5-8.8 13.2 1 5.1 5.2 6.7 17.6 6.7H457v-9.4c0-6-.4-9.7-1.1-10.2-1.9-1.2-14.1-1.4-18.4-.3z"/></svg>