 <svg version="1.0" xmlns="http://www.w3.org/2000/svg" width="700.000000pt" height="700.000000pt" viewBox="0 0 700.000000 700.000000" preserveAspectRatio="xMidYMid meet">
<metadata>
Created by potrace 1.12, written by Peter Selinger 2001-2015
</metadata>
<g transform="translate(0.000000,700.000000) scale(0.100000,-0.100000)" fill="#000000" stroke="none">
<path d="M3366 6991 c-3 -5 -52 -12 -108 -15 -111 -7 -256 -28 -355 -51 -34
-8 -72 -15 -85 -15 -12 0 -43 -6 -68 -14 -25 -8 -72 -22 -105 -31 -79 -23
-172 -54 -212 -71 -17 -8 -36 -14 -41 -14 -10 0 -83 -32 -207 -90 -319 -151
-622 -411 -813 -695 -66 -98 -174 -301 -191 -360 -5 -16 -19 -55 -31 -85 -12
-30 -25 -71 -29 -90 -4 -19 -13 -51 -19 -70 -17 -56 -41 -177 -54 -280 -17
-124 -17 -500 0 -610 21 -140 61 -298 88 -352 8 -14 14 -32 14 -39 0 -8 21
-57 47 -109 156 -315 416 -575 788 -787 38 -22 326 -165 370 -183 11 -5 43
-18 70 -30 28 -12 64 -28 82 -36 17 -8 38 -14 46 -14 9 0 18 -4 22 -10 3 -5
20 -14 38 -19 66 -20 202 -72 211 -81 6 -6 22 -10 36 -10 14 0 34 -6 45 -14
11 -7 31 -16 45 -19 34 -7 111 -35 132 -47 10 -6 23 -10 30 -10 7 -1 31 -9 53
-20 22 -11 48 -19 57 -20 9 0 19 -4 23 -9 3 -5 19 -13 36 -16 17 -4 57 -18 88
-32 76 -33 203 -93 221 -103 8 -5 35 -19 58 -31 74 -37 198 -135 243 -191 23
-29 53 -78 68 -108 23 -50 25 -66 25 -170 -1 -110 -2 -118 -34 -183 -60 -121
-170 -199 -350 -246 -128 -34 -585 -37 -775 -6 -364 61 -691 148 -995 265 -30
12 -69 26 -87 31 -18 5 -35 14 -38 19 -4 6 -13 10 -21 10 -9 0 -45 14 -81 30
-35 17 -68 30 -73 30 -12 0 -339 161 -371 182 -9 6 -24 8 -33 5 -15 -6 -16
-77 -14 -868 l3 -862 30 -16 c17 -9 57 -27 90 -39 33 -13 74 -29 90 -36 37
-16 60 -24 250 -86 201 -65 227 -73 395 -113 303 -73 591 -121 805 -133 60 -3
115 -10 121 -15 16 -13 671 -5 799 10 228 26 469 64 550 86 28 8 64 16 80 18
17 3 44 9 60 15 17 6 82 27 145 47 63 20 129 43 147 51 17 8 34 14 37 14 3 0
36 14 73 31 38 17 88 41 113 52 25 11 73 38 108 59 34 21 64 38 66 38 5 0 76
49 181 123 146 103 373 357 464 518 74 130 137 280 174 409 101 353 108 820
19 1165 -12 44 -24 91 -27 105 -4 14 -11 34 -15 45 -5 11 -21 49 -36 85 -38
93 -83 190 -104 219 -9 14 -39 59 -65 99 -146 222 -365 415 -688 606 -80 47
-321 163 -407 196 -30 11 -64 25 -75 30 -27 12 -104 42 -200 77 -131 48 -149
54 -180 63 -42 12 -206 68 -230 79 -11 5 -29 12 -40 15 -41 10 -150 50 -310
113 -88 35 -254 118 -317 160 -64 42 -168 145 -168 167 0 5 -6 17 -13 25 -35
42 -50 192 -27 269 31 100 84 166 176 218 68 38 138 62 229 76 93 15 391 21
480 9 44 -5 127 -15 185 -21 119 -11 254 -33 352 -55 224 -51 238 -54 383 -98
127 -38 279 -88 320 -106 18 -8 77 -32 160 -64 16 -7 89 -42 162 -78 73 -36
135 -63 138 -61 3 3 5 414 5 912 0 971 3 921 -50 933 -14 3 -50 15 -80 27 -30
12 -68 25 -85 30 -16 5 -61 20 -100 34 -67 24 -208 64 -325 92 -30 7 -73 17
-95 23 -181 43 -462 86 -730 112 -154 14 -762 23 -769 10z"></path>
</g>
</svg>