<svg version="1.0" xmlns="http://www.w3.org/2000/svg" width="93.3333" height="101.4667" viewBox="0 0 700 761">
    <path
        d="M344.8 5.7c-11 16.5-18.7 35.8-21.4 53.8-1.1 7.5-.4 20.7 1.5 28.8 2.2 9.5 5.8 18 7.2 17.1.5-.3.6.1.3.9-.5 1.5.2 2.9 10.9 21.9 11.4 20.1 14.4 26 18.2 35.3 14.7 36.3 13.8 73-2.9 122.4-2 5.8-3.4 10.6-3.2 10.8.2.2 2.3-2 4.8-4.9 17.2-20.4 29-43.9 34.5-68.8 2.2-10.2 2.1-33.6-.2-44.5-4.4-21.2-12.4-38.1-31.2-66.7-4-6-8.9-14.3-10.9-18.4-2-4.2-4.6-8.5-5.8-9.6-1.1-1.2-1.5-1.7-.7-1.3 1 .5 1.2.3.8-1.1-3.6-12-4-15.6-4-32.9 0-16.9.8-25.5 4.2-42.3.4-2.3.7-4.2.6-4.2-.1 0-1.4 1.7-2.7 3.7z" />
    <path
        d="M301.5 82c-8.6 15-12 27.2-11.2 40.5.7 11.6 2.7 16.5 13.1 32.3 23.3 35 27 56.1 17.6 98.7l-.9 4 4.4-5c2.4-2.8 4.4-5.3 4.5-5.7 0-.4 1.5-3.1 3.3-6 10.6-16.7 14.6-39.1 10.3-57.3-2.2-9-8.5-22.1-15.1-31.1-15.3-20.7-20.4-29-22-36.4-.4-1.9-1-11.2-1.4-20.5l-.6-17-2 3.5z" />
    <path
        d="M438 246c7.2 2.4 29 9.2 30.4 9.5.6.1 2.4.7 3.9 1.4 1.6.6 3.2.9 3.7.6.5-.3 1-.1 1.2.4.4 1.2 24.9 12.4 27.1 12.3.9 0 1.5.3 1.2.9-.4.5.1.9.9.9.9 0 1.6.5 1.6 1 0 .6 1.1 1.5 2.3 1.9 3.9 1.5 22.3 15.8 26.2 20.4 12.1 14 12.8 28 1.9 40.5l-3.1 3.6-.6-4.7c-1.3-9-8-19.4-17.9-27.3-6.6-5.4-15.9-11-19.3-11.6-1.1-.1-2.9-1.1-3.9-2.1-1.1-.9-2.5-1.7-3.2-1.7-.6 0-3.6-1.1-6.5-2.4-6.2-2.7-15.7-5.1-16.6-4.2-.4.3.8 1.1 2.6 1.7 13.5 4.7 30.5 15.3 40.3 25.2 11.3 11.2 14.7 20.5 11.3 30.6-1.7 5.3-5.8 10.1-10.5 12.6-2.8 1.4-2.9 1.4-5.3-2.8-12.3-20.6-50.1-37-104.2-45.2-21.7-3.3-34.7-4-70.5-3.9-33 .1-41.4.9-69 6.4-32.3 6.5-50.5 14.2-67.7 28.7-2.8 2.3-5.4 4.3-5.7 4.3-1.5 0-2.3-7.2-1.3-11.2 3.5-14.2 20.5-28.4 47.2-39.4 20.1-8.3 38.1-12.9 73-18.9 32.1-5.5 31.9-5.3 6.5-5.4-26.8-.1-46 1.1-60.1 3.9-35.2 6.9-64.1 20.1-77.4 35.3-4.9 5.7-9.7 14-11.6 20.5-1.4 4.9-2.5 4.9-5.7.2-1.6-2.4-2.2-4.7-2.2-8.4.1-25.1 32.1-48.5 96.5-70.6 13.1-4.4 13.3-4.3-4.5-2.4-23.1 2.5-51.5 10.5-69.9 19.8-23.8 12-37.4 26.8-41.3 44.9-1.8 8.5.6 58 3.7 77.2.3 1.6.7 4.1.9 5.5.2 1.4 1.6 9.6 3.2 18.3 2.3 13.2 2.5 16 1.4 16.7-.8.5-4.3 1.4-7.9 2-8.8 1.5-23.4 5.5-35.6 9.7-23.8 8.3-49.4 24.5-68.5 43.5C14.6 504.5 2.9 526.7.5 549.6c-.8 7.6 1.5 21.6 4.9 30.1 7.7 18.8 24.7 37.8 47.1 52.5C67 641.7 79.9 649 82.3 649c.8 0 1.7.4 1.9.8.9 2.4 33.4 15.4 55.4 22.1 22.9 7 64.4 15.9 86.9 18.5 2.2.2 9.4 1.1 16 2 12.7 1.6 17.9 2.1 31.5 3.1 4.7.4 10.3.8 12.5 1 2.2.2 14.9.6 28.3 1.1 17.8.5 24.2 1 24.2 1.9 0 .7 1.4 3.8 3.1 7.1 11.7 21.9 32.5 38.5 59.9 47.6 8.3 2.8 21.4 5.3 22.9 4.4.5-.4 1.2-.2 1.6.4.9 1.5 31.1 1.2 43-.4 28.4-3.9 58.6-13.8 80.3-26.3C565 723.6 585 706 597 691c11.7-14.7 23.6-35.1 29-49.8.7-1.7 1.5-3.2 1.9-3.2.4 0 5.1-2.6 10.6-5.7 10.8-6.1 24.9-16.2 33.3-23.9 6.9-6.2 16-18.3 19.9-26.4 5.9-12.4 6.8-16.3 6.8-31 0-12.3-.3-14.2-2.9-21.4-6.1-17.1-20-35.2-36.8-48.3-5.6-4.3-6.9-6.5-4.7-7.8 1.4-1 9.1-13 12.7-20.1 10.9-21.4 14.8-41.2 12.3-62-1.1-8.9-5.2-23.7-7.1-25.7-.4-.5-1.5 0-2.5.9-1.4 1.4-1.6 2.7-.9 7.3 1 7 1.1 31.1.2 31.1-.4 0-1.2 2.6-1.8 5.7-3.7 17.6-14.4 38.1-27.7 53.1-12.2 13.7-31.6 25.9-50.3 31.8l-8.3 2.6-8.1-2.5c-9.6-3.1-20.4-5.3-30.3-6.3-4-.3-7.3-.9-7.3-1.1 0-.3.7-1.7 1.5-3.1.8-1.5 2.1-4.4 2.8-6.5l1.3-3.8 16.9-.3c18.3-.3 25.8-1.8 39.9-8.1 30.7-13.6 54.6-45.8 57.2-77.2.5-5.5.3-7.3-.6-7.3-.9 0-1-.3-.1-1.3 2.1-2.6-2.2-15.3-7.6-22.4-11-14.4-41.7-16.2-55.9-3.1-7.8 7.2-10.4 18-8.3 34.3 1.1 8.8 1 9.7-.6 11.5-4.2 4.6-10.3 1.1-14.7-8.5-2-4.4-2.3-6.5-2.3-17.5 0-17.8 2.6-25.5 10.9-32.8 4.4-3.9 7.9-5.7 15.9-8.4 5.3-1.8 8.7-2.1 22.9-2.2 9.2-.1 16-.5 15.3-.9-5.6-3.1-29.4-6.7-35-5.3l-2.8.7 2.4 2.7 2.4 2.7-3.1-2.8c-2.5-2.3-3.6-2.6-6.5-2.1-4.2.8-14.7 5.9-17.5 8.5-1.1 1-2.4 1.9-2.8 1.9-.4 0-.5-5-.3-11 .5-12.7-.2-16.9-4.4-25.8-6.2-12.9-19.6-24.5-39.8-34.4-12.7-6.2-30.9-12.7-41.6-14.8-3.3-.6-6.8-1.4-7.7-1.6-1.3-.4-1.8 0-1.8 1.3 0 1.5-.2 1.4-1.6-.5-1.2-1.7-1.9-2-2.9-1.2-.7.6-1.6.7-1.9.2-.7-1.1-8.9-2.9-19.6-4.2-11.7-1.4-13.4-1.2-7 1zm-31.5 77.4c20.8 2.1 53 8.9 66.7 14 9.5 3.6 18.8 8.3 24.1 12.1 3.8 2.8 4.7 4.1 4.7 6.5 0 2-.8 3.4-2.3 4.5-4.6 3-34.3 12.1-48.7 14.9-51.2 10.1-98 12.4-150 7.5-13.6-1.2-42.5-5.9-50.5-8.2-2.7-.7-9.7-2.6-15.5-4.2-14.8-3.9-18.8-8.4-14.2-16 2.1-3.4 17.2-11.7 29-15.9 12.6-4.5 40.5-10.3 60.2-12.6 30.7-3.6 33.1-3.8 62.5-3.4 16.5.2 31.8.6 34 .8zm223.7 40.2c2.2 1.4 5.2 4.5 6.7 7 2.7 4.2 2.9 5 2.8 15.4 0 6.1-.4 11-.8 11-.3 0-1.9 3.4-3.4 7.6-1.5 4.1-5 11-7.8 15.2-5.2 8.1-16.8 20.3-23.4 24.6l-3.9 2.6-11.5-4.6c-6.3-2.5-16.1-6.1-21.9-8.1-5.8-1.9-10.9-3.9-11.3-4.3-.7-.6 2.9-23.7 3.9-24.9.2-.2 2.6 1.7 5.4 4.2 3.1 2.8 6.5 4.9 8.6 5.3 8.8 1.6 16.9-2.7 20.4-10.9 2.1-4.7 2.2-5.7 1.1-11.3-4.2-23.1 3.4-33.3 23.8-31.8 5.5.5 8.5 1.2 11.3 3zm-467.5 6.6c2.2 1.8 6.7 4.9 10 6.9l5.9 3.7 2.3 16.8c6.8 50.3 20.8 93.8 41.1 127.4 3.5 5.8 6.6 10.7 7 11 .3.3 2.8 3.6 5.5 7.5 6.3 8.9 24.9 27.6 33.8 33.9 3.8 2.7 10.5 7.1 14.9 9.7 9.1 5.5 8.9 6.1-.7 2.4-24.5-9.2-52.9-30.6-70.3-53-8.5-10.9-22.9-35.7-28.3-48.7-14.5-34.7-24.3-74.5-28.4-116.1-.6-6.6-.6-6.8 1.3-5.8 1 .5 3.7 2.5 5.9 4.3zm401.1 82.5c6.8 2.2 10.9 4 10.3 4.6-.5.5-6.9 1.2-14.2 1.5l-13.2.5.7-2.4c.3-1.3.9-3.6 1.2-5.2.4-1.6 1.3-2.7 2.3-2.7.9 0 6.7 1.6 12.9 3.7zM155 451.5c0 .9 1.8 7 4.1 13.6 2.2 6.6 3.9 12.2 3.7 12.4-.2.1-2.3 1.3-4.8 2.5-20 10.1-38.7 25.2-47.1 38-2 3-4.9 8.6-6.4 12.5-2.4 5.8-2.8 8.4-2.8 15.5.2 23.2 14.9 41.6 46.6 58.4 8.4 4.5 23.7 10.9 24.4 10.2.2-.1-2.1-1.6-4.9-3.1-16.5-8.9-35.4-22.8-43.3-31.8-6-6.9-11.1-16.8-12.5-24.4-2.9-16.2 7.1-33.5 27.5-47.8 6.9-4.8 26.9-15.5 29-15.5.8 0 11.5 19.6 11.5 21.3 0 .3-2.1 1.8-4.7 3.3-2.7 1.5-5.1 3.2-5.5 3.8-.4.6-.8.7-.8.3 0-1.3-11.2 7.7-16.3 13.2-3 3.2-4.7 5.8-4.3 6.7.3.8.1 1.2-.4.9-.5-.3-1.9 1.4-3.1 3.7-1.7 3.3-2.2 6.1-2.3 12.3-.1 9.9 2.5 15.4 11 23.5 3.2 3 4.7 4.2 3.4 2.5-1.4-1.6-2.9-3.3-3.5-3.7-.5-.4-1-1.3-1-2-.1-.7-.7-1.2-1.4-1-.7.1-1-.1-.7-.6.3-.5-.4-3.2-1.4-6.1-4.4-11.4-1.8-19.4 9.7-30.9 4-4 7.5-7.2 7.8-7.2.3 0 4.8-2.1 10.1-4.6 5.2-2.6 9.6-4.5 9.8-4.3C190 528 198 540 198 540.7c0 .4-1.8 2.8-3.9 5.1-6 6.6-7.6 10.6-7.6 18.7 0 7.8 2.6 14.7 5.8 15.3 1.8.4 1.8.2.1-3-4.2-7.9-1.2-18.6 7.1-25.4l4.6-3.7 2.7 2.4c1.4 1.3 3.3 3.2 4 4.1.7 1 2 1.8 2.8 1.8.8 0 1.3.4 1 .9-1.3 2.1 19.7 20.6 30.5 27 25.5 15 45.9 22.4 73.6 26.6 5.7.8 12.5 1.5 15.1 1.5 2.7 0 5.1.2 5.4.5.3.3-.5 3.1-1.8 6.3-1.2 3.1-3.3 10.4-4.5 16.2-2.7 13.1-3 34.7-.5 45.3.9 3.8 1.6 7.3 1.6 7.8 0 .7-2 .8-5.2.5-2.9-.3-9.6-.8-14.8-1.1-10.9-.7-51-5-58.5-6.4-2.7-.5-7.2-1.3-10-1.7-2.7-.4-5.2-.8-5.5-.9-.3 0-2.7-.4-5.5-.9-5.5-.8-22.7-4.1-29-5.6-2.2-.5-10.1-2.4-17.5-4.1-19.9-4.5-50.6-13.9-63.5-19.4-51.4-21.8-76.8-39.1-92.3-62.7-7.8-12-13.1-32.2-10.8-41.4.7-2.6 1-2.1 3.9 5.6 3 7.8 9.1 19.2 12 22.3.7.6 3.2 3.6 5.6 6.5 4.8 5.8 15.5 14.9 24.8 21.1 6.7 4.4 34.2 18.5 34.9 17.8.3-.2-2.6-2-6.4-4-11.1-5.9-28.2-18.5-36.2-26.8-9.1-9.4-16-20.6-20.1-32.5-2.8-8.2-3-9.8-2.7-20 .3-11 .4-11.2 5-20.6 4.8-9.7 15.2-23.6 20.3-27.3 1.5-1.1 3.5-2.7 4.4-3.6 3.6-3.6 17.4-12.2 25.2-15.8 4.6-2.1 12.8-5.3 18.2-7.2 6.4-2.2 9.6-3.8 9.2-4.7-.5-1.4.7-1.6 2-.3.6.6 3.6.4 8-.6 8.7-1.9 20.3-4 23.3-4.2 1.4-.1 2.2.5 2.2 1.4zm492.9 41.8c11.7 9.1 21 28.1 21.1 42.9 0 11.2-6 27.3-14.1 37.8-4.9 6.4-16 18-17.1 18-.4 0-.8-2.3-.8-5.1 0-7.4-2.8-24.3-5.2-31.9-4.3-13.4-13.5-28.2-23.4-37.7-2.4-2.3-4.4-4.4-4.4-4.7 0-.2 3.3-2.1 7.3-4.2 3.9-2 8.4-4.5 9.9-5.5 1.4-1.1 2.9-1.9 3.3-1.9.4 0 4.1-2.7 8.2-6 4.2-3.3 8.1-6 8.7-6 .6.1 3.5 2 6.5 4.3zM543.6 506c3.4 0 21.7 4 22.7 5 .5.4-1.9 1-5.2 1.4-8.6 1-22.6 4.8-29.6 8.1-13.9 6.5-26.6 16.6-33.1 26.2-2.1 3.2-4.5 6.4-5.1 7.1-1.5 1.6-1.7 3.8-.3 4.7.6.4.5 1.3-.2 2.5-.9 1.4-1.6 1.6-2.5.8-1.5-1.2-1.3-1.8-10.3 24.7-8.9 25.9-11.8 32.9-18.2 43.2-5.5 8.7-15.8 18-25.1 22.6-12.4 6.2-35.8 12.2-57 14.8-5.1.6-10.1 1.5-11.2 2.1-1.6.8-1.8.8-.8-.3 1-1 .5-1.7-2.5-3.3-5-2.8-10-12.6-11-21.6-3.1-27.8 12.7-58.5 44.5-86.5 17.5-15.4 39.8-28.7 64.1-38.2 6.3-2.5 12.2-4.6 13.1-4.9.9-.2 5.9-1.5 11.1-2.9 13.1-3.5 26.7-5.7 38-5.9 5.2-.1 10.6-.7 12-1.3 1.9-.8 2.7-.7 3.3.3.4.8 1.9 1.4 3.3 1.4zm38.8 13.7c10.6 3.8 20.8 17.1 23.7 31 1.4 6.9.6 20.2-1.7 28.8-2.1 8-7.1 18.6-12.7 27.2-2.6 3.9-4.8 7.7-4.9 8.4-.2.8-.8 1.6-1.4 1.9-.6.3-4.4 4.3-8.5 8.9-17.8 20.1-45.4 39-74.4 50.9-28.9 11.8-50.4 15.9-78.3 14.9-21.7-.8-34.9-4.6-48.6-13.9-5.1-3.4-7.6-6.8-4-5.3 1.1.4 10.5.9 20.9 1.2 20.9.5 33.7-.8 46.2-4.8 21.2-6.9 36.5-20.8 47.8-43.7 3.1-6.4 11.9-30.5 12.9-35.6.3-1.2 1.6-5.9 3-10.5 4.9-16 11.2-26.7 21.7-36.6 9.5-9 15.7-13.1 28.7-19.1 10.3-4.8 12.5-5.4 18.2-5.4 3.7 0 8.6.8 11.4 1.7zm-415.6 9.4c-.3.8-.7.3-1.1-1-.4-1.7-.3-2.1.5-1.3.5.5.8 1.6.6 2.3zm517.3 8.9c1.7 4.9 2.2 8.9 2.3 16 .1 18.9-7.8 35.2-26.1 53.3-9.8 9.9-30.3 25.5-30.3 23.1 0-.3.7-3.1 1.6-6.2 1-3.2 2.4-10.2 3.3-15.7l1.7-10 5.9-4.4c12.8-9.6 24.7-23.3 30.9-35.8 3.3-6.5 6.4-19.3 6.6-26.8 0-3.1 1.6-.6 4.1 6.5zm-64.2 57.8c-.3 4.8-1.2 10.6-1.9 12.7-1.3 3.9-10.3 20.3-14.1 25.7-1.1 1.5-1.7 3.4-1.3 4.5.4 1.2.3 1.4-.3.6-.7-.9-2.3.6-5.9 5.5-26.8 36.6-71 61-126.9 70.1-25.3 4.1-39.1 4.7-59 2.6-2.8-.3-2.1 0 2 1 11.1 2.6 29.2 3.7 43.7 2.5 29-2.3 48.6-6.5 75.3-16 17.9-6.4 43.6-22.5 57.5-35.9 4-3.9 7.5-6.9 7.7-6.7.9.8-12.6 19.1-19.7 26.7-14.2 15.3-59.5 33.5-100 40.3-8.5 1.4-20.2 2.8-26 3.2-5.8.4-11.2 1.1-12 1.6-2 1.2 37.8.2 48.5-1.2 7.6-1 31-5.5 34.8-6.6.9-.3 1.7-.1 1.7.3 0 1-25.8 9.3-36 11.7-16.9 3.9-25.8 5-43 5-16.3.1-29.5-1.4-36.8-4.1-1.5-.6-1.6-.5-.2 1.3 1.2 1.5 1 1.5-1-.3-1.4-1.2-4.5-2.9-7-3.9-14.5-5.7-25.6-14.2-37.8-28.8-2.9-3.5-10.2-17.2-10.2-19.1 0-.8-.5-1.5-1.1-1.5-.5 0-.8-.4-.4-.9.3-.5.1-1.2-.5-1.6-.5-.3-1-2.7-1-5.2v-4.6l2.9 3.6c1.5 2 3.1 3.4 3.5 3 .3-.3.6.1.6 1 0 2.1 11.9 10.9 20.5 15.1 16.8 8.2 31 11 55 11 17.9 0 28.1-1.4 46.5-6 29.5-7.5 62.9-24.1 87.6-43.5 7.6-5.9 30.4-28.4 30.4-29.9 0-.5 1.2-2.2 2.8-3.9 5.1-5.8 13.8-20.8 17.2-29.5 1.9-4.7 3.6-8.6 3.9-8.6.4 0 .4 4 0 8.8zM83.5 607c.3.6-.1.7-.9.4-1.8-.7-2.1-1.4-.7-1.4.6 0 1.3.4 1.6 1z" />
    <path
        d="M194.1 582.7c0 .5 1.4 1.9 3.2 3.2l3.2 2.5-2.9-3.2c-3.1-3.3-3.6-3.7-3.5-2.5zM403.8 716.7c.7.3 1.6.2 1.9-.1.4-.3-.2-.6-1.3-.5-1.1 0-1.4.3-.6.6zM662.1 351.2c.7 1.6 1.6 2.8 2.1 2.8s.7.4.4.9c-.4.5-.2 2 .3 3.3.6 1.2 1 1.7 1 .9.1-2 3 1.8 3 3.9 0 1.1-.4 1-1.6-.5-1.5-2-1.5-1.9-.9.5.3 1.4.6 2.8.6 3.2 0 .4.9 0 2-.9 1.9-1.7 1.9-1.7-.6-6.3-1.4-2.5-3.6-5.9-5-7.5l-2.4-3 1.1 2.7z" />
</svg>